<?xml version="1.0" encoding="UTF-8"?>
<svg version="1.1" xmlns="http://www.w3.org/2000/svg" width="1536" height="1024">
<path d="M0 0 C506.88 0 1013.76 0 1536 0 C1536 337.92 1536 675.84 1536 1024 C1029.12 1024 522.24 1024 0 1024 C0 686.08 0 348.16 0 0 Z " fill="#251059" transform="translate(0,0)"/>
<path d="M0 0 C12.21 0 24.42 0 37 0 C35.88523462 13.37718453 35.88523462 13.37718453 35.09765625 19.74609375 C32.48463331 41.47437094 30.92952506 63.13726837 30 85 C64.73339926 84.68401895 99.50879344 83.15894473 133.65283203 76.30371094 C136.74442517 75.90367538 139.88263307 76 143 76 C143 87.88 143 99.76 143 112 C133.63751617 111.54329347 124.32734663 110.98844854 115 110.0625 C112.26392267 109.7975814 109.52773464 109.5338371 106.79150391 109.27050781 C104.96274788 109.09329409 103.13428077 108.91306716 101.30615234 108.72949219 C85.24046518 107.15020212 69.21242885 106.73754028 53.08203125 106.44140625 C50.8364607 106.39779792 48.59089584 106.35389553 46.34533691 106.30969238 C40.89695219 106.20307377 35.44850862 106.10007606 30 106 C30.10544278 154.71292713 30.21539608 203.42584238 30.33111694 252.13874623 C30.34488093 257.93429429 30.35860886 263.72984243 30.37231445 269.52539062 C30.37504276 270.67882526 30.37777106 271.8322599 30.38058204 273.02064711 C30.42424989 291.51799952 30.4650195 310.01535717 30.50465261 328.51271862 C30.54560967 347.59672355 30.58983263 366.68071905 30.63687855 385.76470995 C30.66310719 396.44001452 30.68797263 407.11531812 30.70907402 417.79063416 C30.78755046 457.12667948 30.88926121 496.46057348 31.4298491 535.79344618 C31.46039304 538.01871837 31.49016785 540.24399992 31.5198983 542.4692831 C32.16496338 611.01617455 32.16496338 611.01617455 42.37426758 678.62695312 C42.58462646 679.54669922 42.79498535 680.46644531 43.01171875 681.4140625 C43.20209717 682.2282666 43.39247559 683.0424707 43.58862305 683.88134766 C44 686 44 686 44 689 C28.16 689.33 12.32 689.66 -4 690 C-3.236875 684.67875 -2.47375 679.3575 -1.6875 673.875 C0.6401091 657.2834408 2.56746739 640.69601806 4 624 C4.09909668 622.85192871 4.19819336 621.70385742 4.30029297 620.52099609 C7.09582255 587.24335141 7.15823683 553.90288876 7.20060861 520.53368819 C7.20875503 514.94934146 7.22240157 509.36500752 7.23532104 503.78067017 C7.25688603 494.14590807 7.27510144 484.51114455 7.29092598 474.87637138 C7.31380956 460.9467564 7.34192477 447.01715566 7.37124526 433.08755291 C7.41869724 410.47805255 7.46202884 387.86854656 7.50268555 365.2590332 C7.54214851 343.31892438 7.58359761 321.37882074 7.62768555 299.4387207 C7.62904808 298.76027752 7.63041061 298.08183433 7.63181442 297.38283225 C7.64550192 290.56850587 7.65922926 283.75417956 7.67298577 276.93985332 C7.78801098 219.9599132 7.89634908 162.97996188 8 106 C1.57762735 106.12388759 -4.844654 106.25190868 -11.26689148 106.38261414 C-13.44523821 106.42648277 -15.62360324 106.46945389 -17.80198669 106.51145935 C-42.04543774 106.98020249 -65.92599366 108.69362164 -89.98754883 111.67895508 C-90.69136185 111.76590134 -91.39517487 111.8528476 -92.12031555 111.94242859 C-94.03692101 112.18049062 -95.95304829 112.4223934 -97.86914062 112.66455078 C-101 113 -101 113 -105 113 C-105 100.79 -105 88.58 -105 76 C-93.40839765 77.36371792 -81.86766352 78.81520989 -70.32421875 80.5 C-51.45543935 83.17464426 -32.73590898 84.3346233 -13.6875 84.625 C-11.56704386 84.66332639 -9.44660083 84.70238562 -7.32617188 84.7421875 C-2.21755876 84.83652764 2.8911259 84.92111085 8 85 C6.97385695 59.93519443 4.51463214 35.19531574 1.2966156 10.32099915 C0.85707186 6.88159598 0.430075 3.44059999 0 0 Z " fill="#FCFBFD" transform="translate(339,102)"/>
<path d="M0 0 C2.89262717 2.73541917 5.10268716 5.46610359 7.25 8.8125 C11.27128164 14.94906547 15.42924399 20.98147306 19.625 27 C20.66551514 28.49297607 20.66551514 28.49297607 21.72705078 30.01611328 C27.89815918 38.86350398 34.08277133 47.7014431 40.2734375 56.53515625 C42.0377002 59.05382087 43.80033226 61.57361928 45.5625 64.09375 C51.08611966 71.99208048 56.61941628 79.88294174 62.1875 87.75 C67.37365892 95.08350628 72.48035947 102.46891847 77.55078125 109.8828125 C79.08326157 112.12163819 80.61952602 114.3578353 82.15625 116.59375 C135.22441415 193.86607758 135.22441415 193.86607758 135.13371277 238.64801025 C135.13597833 239.48194612 135.13824388 240.31588199 135.14057809 241.17508864 C135.14687327 243.95039898 135.1460916 246.72565991 135.14526367 249.50097656 C135.14825816 251.4992377 135.15166135 253.49749825 135.15544128 255.49575806 C135.16426085 260.91381288 135.16661868 266.3318519 135.16725707 271.74991322 C135.16796929 275.14319077 135.17010697 278.53646434 135.17275429 281.92974091 C135.18200438 293.79235589 135.18609002 305.65495965 135.18530273 317.51757812 C135.1847036 328.53274565 135.19522392 339.54786395 135.2110464 350.56301904 C135.22418194 360.04961635 135.22948405 369.5361977 135.22884732 379.02280402 C135.22859389 384.67507391 135.23135829 390.32730011 135.24202538 395.97956085 C135.25180681 401.30823301 135.25171775 406.63682068 135.24450874 411.96549606 C135.24347491 413.90507253 135.24575287 415.84465455 135.2518692 417.78422165 C135.29902237 433.79396751 135.22229827 450.51602691 130.6875 466 C130.4694873 466.77923828 130.25147461 467.55847656 130.02685547 468.36132812 C124.58510354 487.24901923 115.09587 503.76767223 97.85546875 513.984375 C84.35017159 521.40829894 69.86303695 522.17123268 54.76953125 522.09765625 C53.09488045 522.09553383 53.09488045 522.09553383 51.38639832 522.09336853 C47.86173691 522.08782367 44.33714182 522.0752818 40.8125 522.0625 C38.40559988 522.05747786 35.99869876 522.05291621 33.59179688 522.04882812 C27.72784241 522.03787238 21.86392594 522.02119022 16 522 C14.29573212 512.33696657 13.47720232 502.78264757 13 493 C13.55328979 492.99635437 14.10657959 492.99270874 14.67663574 492.98895264 C20.5187139 492.94662307 26.36004273 492.87693969 32.20166016 492.79248047 C34.37183071 492.76453009 36.54209816 492.7431889 38.71240234 492.72900391 C57.16854994 492.60125023 74.59577767 492.15198655 89.05078125 479.15625 C100.41001346 467.2862172 103.15819093 449.25001115 103.14044189 433.42082214 C103.14341302 432.58224602 103.14638414 431.74366989 103.1494453 430.87968236 C103.15808432 428.08278254 103.1596365 425.28592576 103.16113281 422.48901367 C103.16576459 420.47780263 103.17078973 418.46659246 103.17617798 416.4553833 C103.18927413 410.99815202 103.19574215 405.54093303 103.20018864 400.0836885 C103.20312542 396.6674831 103.20723148 393.25128101 103.21169281 389.83507729 C103.22536384 379.1275122 103.23503098 368.41995475 103.2388947 357.71238154 C103.24336687 345.38880293 103.2608773 333.06533571 103.2898953 320.74179095 C103.31158919 311.19409913 103.32160317 301.64643846 103.32293582 292.09872228 C103.32397885 286.40735129 103.32977833 280.71608506 103.34775543 275.02474022 C103.3643686 269.66076619 103.36632807 264.29697416 103.35761642 258.9329834 C103.35685293 256.97805096 103.36109638 255.02310819 103.37107468 253.06820107 C103.62718736 199.70604026 75.08603711 159.45247961 43.80395508 118.60839844 C39.51848352 113.01007852 35.29490763 107.37492836 31.15405273 101.66894531 C27.964048 97.28246592 24.69402893 92.96253692 21.40112305 88.65283203 C18.81851914 85.24596551 16.29101676 81.79988437 13.76416016 78.3515625 C12.18236748 76.24308934 10.53823909 74.21527346 8.85546875 72.1875 C-0.03349939 60.80004427 0.81860478 48.43945468 1.01489258 34.49536133 C0.9956227 29.97262644 0.62031684 25.51427545 0.22924805 21.01098633 C-0.0966402 16.73070967 -0.11045298 12.47744777 -0.0625 8.1875 C-0.05573242 6.98770508 -0.05573242 6.98770508 -0.04882812 5.76367188 C-0.03732358 3.84241342 -0.01940601 1.92119489 0 0 Z " fill="#FCFCFD" transform="translate(384,269)"/>
<path d="M0 0 C0.33 0 0.66 0 1 0 C0.74969801 9.63863883 0.48519253 19.27670639 0.1995697 28.91436768 C0.05791926 33.76035164 -0.055687 38.60590336 -0.1484375 43.453125 C-0.20247828 45.55210008 -0.25711319 47.65106 -0.3125 49.75 C-0.32273193 50.68650391 -0.33296387 51.62300781 -0.34350586 52.58789062 C-0.61978831 61.47483943 -4.01195373 67.12164867 -9.5 74 C-10.39294739 75.13331142 -11.28482817 76.26746384 -12.17578125 77.40234375 C-12.63936035 77.98999512 -13.10293945 78.57764648 -13.58056641 79.18310547 C-15.99589966 82.27476527 -18.34019988 85.41906022 -20.6875 88.5625 C-21.70437523 89.92191379 -22.72130384 91.28128765 -23.73828125 92.640625 C-24.26502441 93.34509766 -24.79176758 94.04957031 -25.33447266 94.77539062 C-27.08846293 97.11815805 -28.84650848 99.45783706 -30.60546875 101.796875 C-42.78917653 118.00260532 -54.97434454 134.21308942 -66.52783203 150.87744141 C-67.51735527 152.30412715 -68.51058464 153.72824884 -69.50732422 155.14990234 C-92.64858449 188.25238611 -103.136917 221.80491788 -103.16113281 262.06567383 C-103.16576997 263.87394307 -103.17079581 265.68221134 -103.17617798 267.49047852 C-103.18922138 272.37751173 -103.1957316 277.26453126 -103.20018864 282.15157914 C-103.20313368 285.21606707 -103.20724118 288.28055138 -103.21169281 291.34503746 C-103.22534926 300.96550344 -103.2350238 310.58596099 -103.2388947 320.20643598 C-103.24336486 331.25080856 -103.26087206 342.29505673 -103.2898953 353.33939153 C-103.31163739 361.9156849 -103.32160568 370.4919436 -103.32293582 379.06826419 C-103.32397533 384.17173136 -103.32969797 389.27508131 -103.34775543 394.37851906 C-105.23432725 439.34170984 -105.23432725 439.34170984 -86.875 478.6875 C-71.75904517 492.67885425 -53.54647771 492.46926351 -34.125 492.6875 C-32.06898966 492.72074516 -30.01299914 492.7552412 -27.95703125 492.79101562 C-22.97146525 492.8750841 -17.98593775 492.94227615 -13 493 C-13.14008671 496.5210863 -13.28810982 500.04179712 -13.4375 503.5625 C-13.47681641 504.55314453 -13.51613281 505.54378906 -13.55664062 506.56445312 C-13.59853516 507.53447266 -13.64042969 508.50449219 -13.68359375 509.50390625 C-13.72025146 510.38892822 -13.75690918 511.2739502 -13.79467773 512.18579102 C-14.03549227 515.48646784 -14.50237351 518.72912413 -15 522 C-22.25497542 522.07690479 -29.50984338 522.12895333 -36.76513672 522.16479492 C-39.2264397 522.17975774 -41.68771659 522.20013528 -44.14892578 522.22631836 C-70.05504353 522.49474827 -91.29795016 520.6899788 -111.1875 502.3125 C-132.68100712 479.76193516 -134.31742178 445.63304503 -134.2746582 416.2878418 C-134.27901811 414.27987481 -134.28420545 412.27190947 -134.29014587 410.26394653 C-134.30340946 404.86499517 -134.30412882 399.46611433 -134.30158257 394.06714988 C-134.30050425 389.5349818 -134.30541804 385.0028275 -134.310188 380.47066242 C-134.3212394 369.76566852 -134.32174525 359.06070972 -134.31567383 348.35571289 C-134.30963701 337.36759294 -134.32194781 326.37960114 -134.3432439 315.39150304 C-134.36094244 305.90553184 -134.36684833 296.41960114 -134.36360615 286.93361408 C-134.36180632 281.29094468 -134.364298 275.64836672 -134.37832069 270.00571251 C-134.39102979 264.69410134 -134.38883326 259.38268789 -134.37590981 254.07107925 C-134.37357268 252.13997768 -134.37617354 250.20886161 -134.38453293 248.27777672 C-134.62703677 187.82192502 -100.5687141 143.41270645 -67 96 C-65.96970658 94.53930614 -64.93975818 93.07836886 -63.91015625 91.6171875 C-60.4584088 86.72035557 -56.99980993 81.8283791 -53.54101562 76.93652344 C-52.06864312 74.85377488 -50.59669684 72.77072605 -49.125 70.6875 C-48.63427002 69.99301758 -48.14354004 69.29853516 -47.63793945 68.58300781 C-44.94498349 64.7681684 -42.26180167 60.94676761 -39.58984375 57.1171875 C-38.41410764 55.43226017 -37.23832594 53.74736464 -36.0625 52.0625 C-35.47629883 51.22243408 -34.89009766 50.38236816 -34.28613281 49.5168457 C-30.37455478 43.92557105 -26.39365759 38.38963217 -22.375 32.875 C-15.55469256 23.50357726 -9.09289729 13.89305115 -2.80908203 4.15429688 C-1.89748715 2.75310384 -0.95251911 1.37370102 0 0 Z " fill="#FDFDFD" transform="translate(332,269)"/>
<path d="M0 0 C7.69928998 6.64092837 12.82174897 15.04344211 15 25 C15.51459445 34.98511152 15.67732178 44.55088186 12 54 C11.74476562 54.68964844 11.48953125 55.37929688 11.2265625 56.08984375 C6.9940389 65.89454292 -1.36160543 73.67421282 -11 78 C-23.34105347 82.74086088 -36.60347172 84.43241602 -49 79 C-60.59930716 73.2265892 -67.14498692 66.03670974 -72 54 C-76.36392009 40.80383972 -74.72075584 27.6136973 -68.71484375 15.3828125 C-62.10445298 3.26683164 -51.76122935 -2.75136546 -39 -7 C-25.28844048 -9.94908697 -11.7589967 -7.65444125 0 0 Z " fill="#FBFAFC" transform="translate(1077,325)"/>
<path d="M0 0 C4.95 0 9.9 0 15 0 C15.5878125 1.72476563 15.5878125 1.72476563 16.1875 3.484375 C26.4875343 33.48661799 37.44609494 63.27646199 48.8125 92.89013672 C50.00254624 96.00666818 51.17569805 99.12907134 52.34375 102.25390625 C52.70984375 103.2291626 53.0759375 104.20441895 53.453125 105.20922852 C54.12342384 106.99611892 54.79040578 108.78425925 55.453125 110.57397461 C57.90945759 117.68918546 57.90945759 117.68918546 62.6875 123.25 C66.09206368 124.35418282 69.43953933 124.64395393 73 125 C73.33 126.65 73.66 128.3 74 130 C57.17 130 40.34 130 23 130 C23 125 23 125 24 124 C26.01311449 123.60430892 28.03597208 123.25747809 30.0625 122.9375 C31.16722656 122.76089844 32.27195312 122.58429688 33.41015625 122.40234375 C34.26480469 122.26957031 35.11945313 122.13679687 36 122 C34.75037906 113.29926452 32.26558028 105.28331912 29.375 97 C28.54546775 94.60555262 27.71975206 92.20977854 26.8984375 89.8125 C26.35195557 88.24435547 26.35195557 88.24435547 25.79443359 86.64453125 C25 84 25 84 25 81 C10.81 81 -3.38 81 -18 81 C-18.33 83.31 -18.66 85.62 -19 88 C-19.57066438 90.13888232 -20.18768557 92.26587192 -20.84765625 94.37890625 C-21.20537109 95.54744141 -21.56308594 96.71597656 -21.93164062 97.91992188 C-22.68699677 100.35297749 -23.44481945 102.7852687 -24.20507812 105.21679688 C-24.56150391 106.38404297 -24.91792969 107.55128906 -25.28515625 108.75390625 C-25.61394775 109.80908447 -25.94273926 110.8642627 -26.28149414 111.95141602 C-27.02801046 115.11884698 -27.27515945 117.75913666 -27 121 C-24.50600835 123.49399165 -23.38557427 123.32932088 -19.9375 123.5625 C-15.09722222 123.90277778 -15.09722222 123.90277778 -14 125 C-14 126.65 -14 128.3 -14 130 C-27.53 130 -41.06 130 -55 130 C-55 128.35 -55 126.7 -55 125 C-54.40832031 124.91363281 -53.81664062 124.82726562 -53.20703125 124.73828125 C-52.41683594 124.59777344 -51.62664063 124.45726562 -50.8125 124.3125 C-50.03519531 124.18488281 -49.25789062 124.05726563 -48.45703125 123.92578125 C-44.28478734 122.3537275 -41.93778232 119.77597179 -39.86206055 115.8449707 C-38.63365918 113.09174997 -37.5222546 110.31299247 -36.4375 107.5 C-36.01114258 106.41396484 -35.58478516 105.32792969 -35.14550781 104.20898438 C-30.92455303 93.21926385 -27.32946364 82.03583523 -23.75927734 70.82177734 C-18.52643897 54.39070693 -12.92916219 38.09017008 -7.32113647 21.78411865 C-4.83294102 14.53836883 -2.41047217 7.27196652 0 0 Z " fill="#FBFAFC" transform="translate(899,640)"/>
<path d="M0 0 C7.06582882 -0.02531773 14.13164598 -0.04285324 21.19750977 -0.05493164 C23.60213661 -0.05996598 26.00676038 -0.06679386 28.41137695 -0.07543945 C31.86410275 -0.08754429 35.31678814 -0.09323726 38.76953125 -0.09765625 C39.84773636 -0.10281754 40.92594147 -0.10797882 42.03681946 -0.11329651 C43.53803596 -0.11340981 43.53803596 -0.11340981 45.06958008 -0.11352539 C45.95116287 -0.115746 46.83274567 -0.11796661 47.74104309 -0.12025452 C50 0 50 0 53 1 C53.042721 2.66611905 53.04063832 4.33382885 53 6 C51.30697636 7.69302364 49.00313451 7.2051527 46.6875 7.3125 C42.34712933 7.69852302 42.34712933 7.69852302 38.4375 9.5 C33.98486544 17.24371228 34.69318087 26.6824783 34.69921875 35.31640625 C34.69531928 36.70011012 34.6909821 38.08381282 34.68623352 39.46751404 C34.67880751 42.35964849 34.67903408 45.25166083 34.68432617 48.14379883 C34.68894497 51.07722353 34.68208588 54.01023255 34.66381836 56.94360352 C33.19911948 86.57479975 33.19911948 86.57479975 44.5625 112.796875 C53.48699939 121.14293461 64.20991481 122.39439334 75.91015625 122.21875 C85.8314811 121.85137856 94.69366792 118.64169322 101.6875 111.5 C109.58739429 101.63738578 109.56815473 90.01862495 109.42578125 77.9921875 C109.42084287 76.3742005 109.41755345 74.75620772 109.41581726 73.13821411 C109.4082286 69.76789713 109.38782783 66.39801264 109.35668945 63.02783203 C109.31705487 58.73344019 109.29906118 54.43932748 109.28938007 50.14477348 C109.27935425 46.01054145 109.25954822 41.87637484 109.23828125 37.7421875 C109.2348855 36.96762081 109.23148975 36.19305412 109.2279911 35.39501572 C110.33191876 21.18565323 110.33191876 21.18565323 106 8.9375 C102.62558587 7.88299558 99.5114526 7.54836111 95.98828125 7.40625 C94 7 94 7 92 4 C92 3.01 92 2.02 92 1 C95.26967263 -0.63483632 98.88033115 -0.14170489 102.47265625 -0.1328125 C103.73002846 -0.13424759 103.73002846 -0.13424759 105.01280212 -0.13571167 C106.78563512 -0.1363926 108.55847061 -0.13454434 110.33129883 -0.13037109 C113.05490677 -0.12501493 115.77835029 -0.13032243 118.50195312 -0.13671875 C120.22135453 -0.13605808 121.94075584 -0.13477716 123.66015625 -0.1328125 C124.88980858 -0.13584885 124.88980858 -0.13584885 126.14430237 -0.13894653 C131.88504493 -0.11495507 131.88504493 -0.11495507 133 1 C133.125 3.5 133.125 3.5 133 6 C131.09576534 7.90423466 127.71526887 7.4259749 125.12890625 7.62109375 C122.79072597 7.82776636 122.79072597 7.82776636 121 10 C120.6810596 12.58804015 120.49795119 15.07213522 120.3984375 17.671875 C120.36100433 18.49701599 120.32357117 19.32215698 120.28500366 20.17230225 C119.96392653 28.07536988 119.87593267 35.98213148 119.7890625 43.890625 C119.77819736 44.87912193 119.77819736 44.87912193 119.76711273 45.8875885 C119.70019551 52.06592732 119.63605146 58.24425561 119.59863281 64.42285156 C119.58156602 67.17248068 119.55673714 69.92184117 119.52377319 72.67132568 C119.4933906 75.22578126 119.47352143 77.78039481 119.46670532 80.33502197 C119.27147434 94.22715986 117.54707484 108.99475809 107.9375 119.75 C95.37469003 131.3781589 78.29891057 132.54618114 62.08300781 132.08886719 C46.91950539 131.44194796 33.52963879 127.7665732 22.75 116.6875 C17.51441721 108.64714071 15.85521524 101.24458421 15.84228516 91.72485352 C15.83466408 90.4946347 15.83466408 90.4946347 15.82688904 89.23956299 C15.81621518 87.46408201 15.80758338 85.68858783 15.80076981 83.91308784 C15.78894413 81.10075563 15.76948304 78.28857444 15.74765015 75.4763031 C15.68614887 67.48221873 15.63197308 59.48815197 15.59863281 51.49389648 C15.57767223 46.59913175 15.54236242 41.70464638 15.49787521 36.81004143 C15.48373139 34.9477969 15.47499643 33.085503 15.47182083 31.22320747 C15.46690444 28.61668826 15.44372943 26.0109094 15.41650391 23.40454102 C15.41951004 22.63915512 15.42251617 21.87376923 15.4256134 21.08518982 C15.35205018 16.33553679 14.53818939 13.02755601 12 9 C9.10637351 7.55318676 6.1916991 7.56757624 2.99609375 7.28125 C1 7 1 7 0 6 C-0.04080783 4.00041636 -0.04254356 1.99954746 0 0 Z " fill="#F9F8FA" transform="translate(626,641)"/>
<path d="M0 0 C0.33 22.11 0.66 44.22 1 67 C7.27 63.7 13.54 60.4 20 57 C25.38691264 55.4608821 28.69461063 54.70533352 34.0625 54.6875 C35.22910156 54.67074219 36.39570312 54.65398437 37.59765625 54.63671875 C42.87028314 55.19969728 46.78832373 57.17479708 50.1875 61.25 C50.65542969 61.79140625 51.12335938 62.3328125 51.60546875 62.890625 C56.48650018 70.27369774 56.44059895 76.80582488 56.44140625 85.484375 C56.4615831 87.45892169 56.48177014 89.43346835 56.50257015 91.40800858 C56.5281434 94.15729326 56.54074585 96.90657312 56.55297852 99.65594482 C56.5749341 104.48462554 56.60591558 109.31317212 56.65428162 114.1416626 C56.67868871 116.70909262 56.69350642 119.27663496 56.69789124 121.84417725 C56.71317116 123.58178314 56.71317116 123.58178314 56.72875977 125.35449219 C56.73517235 126.88502228 56.73517235 126.88502228 56.74171448 128.44647217 C56.82319582 131.24195712 56.82319582 131.24195712 59 134 C61.64047252 135.01752555 61.64047252 135.01752555 64.625 135.6875 C65.62789062 135.93886719 66.63078125 136.19023437 67.6640625 136.44921875 C68.43492187 136.63097656 69.20578125 136.81273437 70 137 C70 138.65 70 140.3 70 142 C56.14 142 42.28 142 28 142 C27.505 139.525 27.505 139.525 27 137 C27.62648438 136.87882813 28.25296875 136.75765625 28.8984375 136.6328125 C29.71570313 136.46523438 30.53296875 136.29765625 31.375 136.125 C32.18710937 135.96257812 32.99921875 135.80015625 33.8359375 135.6328125 C36.18673923 135.13341068 36.18673923 135.13341068 38 133 C39.11454035 127.50434632 39.16067126 122.06232572 39.16796875 116.48046875 C39.17129715 115.58185623 39.17462555 114.68324371 39.17805481 113.75740051 C39.18309602 111.86390694 39.18546401 109.97040457 39.18530273 108.0769043 C39.18748539 105.20671675 39.20566063 102.3369164 39.22460938 99.46679688 C39.2275448 97.6171888 39.2295286 95.76757892 39.23046875 93.91796875 C39.24124702 92.65027901 39.24124702 92.65027901 39.25224304 91.35697937 C39.22723542 84.71195114 39.16016297 77.08594709 35.25 71.5 C30.19931214 68.13287476 24.98484993 67.27919691 19 68 C14.53016887 69.12516439 10.33271743 70.82724598 6.125 72.6875 C3 74 3 74 0 74 C0.08436121 81.51061652 0.17922804 89.02103785 0.28752708 96.53134632 C0.33748374 100.01865977 0.3838136 103.50594303 0.421875 106.9934082 C0.46578584 111.00231077 0.5254346 115.01084452 0.5859375 119.01953125 C0.59748871 120.27272659 0.60903992 121.52592194 0.62094116 122.8170929 C0.64081085 123.97806992 0.66068054 125.13904694 0.68115234 126.33520508 C0.69447601 127.35890701 0.70779968 128.38260895 0.7215271 129.43733215 C0.82660412 132.23993832 0.82660412 132.23993832 3 135 C5.17897492 136.00805555 5.17897492 136.00805555 7.625 136.6875 C8.85089844 137.06455078 8.85089844 137.06455078 10.1015625 137.44921875 C11.04128906 137.72185547 11.04128906 137.72185547 12 138 C12 139.32 12 140.64 12 142 C-2.19 142 -16.38 142 -31 142 C-31 140.35 -31 138.7 -31 137 C-30.31292969 136.90203125 -29.62585938 136.8040625 -28.91796875 136.703125 C-27.56638672 136.47882813 -27.56638672 136.47882813 -26.1875 136.25 C-24.84751953 136.04117188 -24.84751953 136.04117188 -23.48046875 135.828125 C-20.38825605 134.79576422 -19.67895821 133.75478499 -18 131 C-17.55663932 128.72000087 -17.55663932 128.72000087 -17.6257782 126.24925232 C-17.61876389 125.29728973 -17.61174957 124.34532715 -17.60452271 123.36451721 C-17.61216644 122.326978 -17.61981018 121.28943878 -17.62768555 120.22045898 C-17.62403488 119.12254028 -17.62038422 118.02462158 -17.61662292 116.89343262 C-17.60851051 113.26082947 -17.62213289 109.62867137 -17.63671875 105.99609375 C-17.63723723 103.47550965 -17.63671999 100.95492513 -17.63520813 98.43434143 C-17.63529788 93.15090404 -17.64539629 87.86762319 -17.66381836 82.58422852 C-17.68499627 76.47547945 -17.68849328 70.36691837 -17.6822564 64.25814003 C-17.6765628 58.38055407 -17.68231218 52.50302477 -17.69342995 46.62544441 C-17.69728641 44.12432179 -17.69842832 41.6231935 -17.6968441 39.12206841 C-17.69647442 35.63131713 -17.70906619 32.14085452 -17.7253418 28.65014648 C-17.72286438 27.61058304 -17.72038696 26.57101959 -17.71783447 25.49995422 C-17.72491928 24.55081146 -17.73200409 23.6016687 -17.73930359 22.62376404 C-17.74135646 21.79842383 -17.74340933 20.97308363 -17.74552441 20.12273312 C-17.87387554 17.69982473 -17.87387554 17.69982473 -20 15 C-22.41607417 14.20201782 -22.41607417 14.20201782 -25.125 13.8125 C-26.03507813 13.65394531 -26.94515625 13.49539063 -27.8828125 13.33203125 C-28.58148437 13.22246094 -29.28015625 13.11289062 -30 13 C-30 11.35 -30 9.7 -30 8 C-29.2886792 7.79318604 -28.5773584 7.58637207 -27.84448242 7.37329102 C-24.62531272 6.43696305 -21.40640369 5.49974204 -18.1875 4.5625 C-17.06794922 4.23701172 -15.94839844 3.91152344 -14.79492188 3.57617188 C-13.72177734 3.26357422 -12.64863281 2.95097656 -11.54296875 2.62890625 C-10.55321045 2.34088135 -9.56345215 2.05285645 -8.54370117 1.75610352 C-2.63577656 0 -2.63577656 0 0 0 Z " fill="#F9F8FA" transform="translate(931,263)"/>
<path d="M0 0 C1.71756966 1.71756966 1.47570906 4.07757365 1.75390625 6.42578125 C1.95209961 8.08577148 1.95209961 8.08577148 2.15429688 9.77929688 C2.28900391 10.94525391 2.42371094 12.11121094 2.5625 13.3125 C2.70107422 14.46685547 2.83964844 15.62121094 2.98242188 16.81054688 C3.50491087 21.24526876 4 25.52986407 4 30 C1.69 30 -0.62 30 -3 30 C-3.25652344 29.24976563 -3.51304687 28.49953125 -3.77734375 27.7265625 C-8.22351491 15.84016554 -15.44365818 7.35548656 -27.03125 2.07421875 C-38.6579087 -2.64352161 -52.31484745 -2.37420393 -64 2 C-77.88379373 9.10718012 -86.30766262 19.64862243 -91.375 34.375 C-97.42076177 53.45857845 -93.31867661 74.2184063 -85 92 C-82.91748867 95.8825671 -80.6199456 99.46047084 -78 103 C-77.46761719 103.72703125 -76.93523438 104.4540625 -76.38671875 105.203125 C-69.84717201 113.38146031 -60.40034586 119.36628508 -50 121 C-35.21494044 122.31862293 -22.79618285 119.09705627 -11 110 C-6.17184048 105.71996487 -3.67289252 99.75524942 -1 94 C1.31 94.33 3.62 94.66 6 95 C5.79113725 97.05381708 5.57389082 99.10699352 5.32421875 101.15625 C5.09199813 103.19307666 4.913167 105.23626638 4.76953125 107.28125 C3.94445406 115.74557127 3.94445406 115.74557127 1.4765625 119.0234375 C-14.03180773 131.49343315 -39.45983102 131.6712687 -58.24707031 129.77294922 C-77.64096308 127.06048321 -92.92390856 116.45034287 -105.0390625 101.48046875 C-115.40151913 86.62152763 -119.17583461 66.83110151 -116.38671875 49.1015625 C-112.34635637 29.67139752 -102.30679345 14.01293531 -85.88671875 2.74609375 C-59.28980365 -13.3416208 -27.85476187 -12.2575632 0 0 Z " fill="#FBFAFC" transform="translate(744,462)"/>
<path d="M0 0 C0.67854034 0.00076538 1.35708069 0.00153076 2.05618286 0.00231934 C14.81820911 0.054125 34.20219074 0.70219074 44 10.5 C44.22712081 11.96331494 44.39456222 13.43600978 44.53515625 14.91015625 C44.62216797 15.81830078 44.70917969 16.72644531 44.79882812 17.66210938 C44.88583984 18.61923828 44.97285156 19.57636719 45.0625 20.5625 C45.19881836 21.95758789 45.19881836 21.95758789 45.33789062 23.38085938 C45.84259847 28.78085387 46.09581072 34.07711334 46 39.5 C43.69 39.5 41.38 39.5 39 39.5 C38.85304688 38.88253906 38.70609375 38.26507813 38.5546875 37.62890625 C35.76911372 27.11096387 30.42484279 19.02661442 21.05859375 13.31640625 C9.84049224 7.32317394 -4.08676389 6.71329208 -16.4296875 9.1875 C-19.11637236 10.10082063 -21.50717299 11.14831509 -24 12.5 C-24.78375 12.92410156 -25.5675 13.34820312 -26.375 13.78515625 C-38.72290156 21.27315736 -45.90548803 33.66551107 -49.9375 47.25 C-54.40105314 68.28449418 -49.06380799 91.05309039 -37.71875 109.0546875 C-30.42690085 119.42900015 -21.40524286 127.15191399 -9 130.5 C-5.53091494 130.92788496 -2.11745214 130.97804777 1.375 130.9375 C2.30820068 130.92775146 3.24140137 130.91800293 4.20288086 130.90795898 C16.62505367 130.5867616 24.74598575 125.78654912 34 117.5 C36.4297248 114.47487234 37.70054239 111.34222452 39 107.6875 C40 105.5 40 105.5 41.875 104.125 C44.35288368 103.39621068 45.56411144 103.79675184 48 104.5 C47.76930683 107.67571235 47.52880672 110.84990579 47.26953125 114.0234375 C47.10940132 116.08888152 46.97271565 118.1567062 46.88671875 120.2265625 C46.67173477 123.89971739 46.52237396 125.87315125 44.125 128.75 C43.09375 129.3275 42.0625 129.905 41 130.5 C40.29230469 130.89703125 39.58460938 131.2940625 38.85546875 131.703125 C20.00242554 141.31788744 -5.12167339 142.82575903 -25.5 137.9375 C-37.08628778 134.07990011 -46.45151027 128.16579319 -55 119.5 C-55.72058594 118.78972656 -56.44117188 118.07945312 -57.18359375 117.34765625 C-69.46128299 104.51294519 -74.79137195 86.35995107 -74.5234375 68.890625 C-73.668912 48.47696031 -64.99250268 31.78550261 -50.4453125 17.6328125 C-35.98653631 5.02180323 -18.85538637 -0.08806055 0 0 Z " fill="#FBFAFC" transform="translate(702,267.5)"/>
<path d="M0 0 C0 21.12 0 42.24 0 64 C6.27 60.7 12.54 57.4 19 54 C27.97705183 51.00764939 37.33021137 48.60062107 46.5 52.4375 C51.77643011 55.59201091 55.09598746 61.28796239 57 67 C57.10678457 68.93150971 57.15606364 70.86640131 57.17358398 72.80078125 C57.18707382 73.9921167 57.20056366 75.18345215 57.21446228 76.41088867 C57.23011986 78.34218628 57.23011986 78.34218628 57.24609375 80.3125 C57.26159754 81.64624851 57.27780723 82.97998898 57.29469299 84.3137207 C57.36540124 89.97695605 57.42564547 95.64026579 57.47680664 101.30371094 C57.50859288 104.76969325 57.54986207 108.23545759 57.59700203 111.70126343 C57.62080634 113.66380464 57.63376511 115.62646766 57.64659119 117.58911133 C57.66323318 118.78044678 57.67987518 119.97178223 57.69702148 121.19921875 C57.71248268 122.77449341 57.71248268 122.77449341 57.72825623 124.3815918 C57.81866 127.23265681 57.81866 127.23265681 60 130 C62.38384315 130.76161182 62.38384315 130.76161182 65.0625 131.125 C69.9193825 131.9193825 69.9193825 131.9193825 71 133 C71 134.65 71 136.3 71 138 C56.81 138 42.62 138 28 138 C28 136.35 28 134.7 28 133 C29.04800781 132.79697266 29.04800781 132.79697266 30.1171875 132.58984375 C31.02726563 132.37457031 31.93734375 132.15929687 32.875 131.9375 C33.77992188 131.74027344 34.68484375 131.54304687 35.6171875 131.33984375 C38.29747675 130.16670008 38.29747675 130.16670008 39.13232422 127.04077148 C40.32093937 122.38749727 40.28716061 117.78512969 40.265625 113.0078125 C40.26753845 112.06243622 40.2694519 111.11705994 40.27142334 110.14303589 C40.27277897 108.15118136 40.26912616 106.15931781 40.26074219 104.16748047 C40.25005789 101.14139642 40.26064646 98.11590922 40.2734375 95.08984375 C40.27211533 93.14583204 40.26955175 91.2018207 40.265625 89.2578125 C40.26967346 88.36377716 40.27372192 87.46974182 40.27789307 86.5486145 C40.23020423 80.06102845 40.1775295 72.92840174 36.1875 67.5625 C30.478209 63.484435 24.78756754 63.01907247 18 64 C14.96462982 65.01637039 12.04453842 66.2613502 9.109375 67.53515625 C8.32675293 67.8664856 7.54413086 68.19781494 6.73779297 68.53918457 C4.82185727 69.35162906 2.91045129 70.17474156 1 71 C0.94917481 78.2773947 0.91421378 85.55474339 0.89013672 92.83227539 C0.88009636 95.30657665 0.86646137 97.78086609 0.84912109 100.25512695 C0.82478672 103.81724977 0.81349701 107.3792153 0.8046875 110.94140625 C0.79436493 112.04271378 0.78404236 113.1440213 0.77340698 114.27870178 C0.77259108 119.89885717 0.95877979 124.73070857 3 130 C5.92452693 132.29784259 9.37272781 132.50537197 13 133 C13 134.65 13 136.3 13 138 C-1.19 138 -15.38 138 -30 138 C-30 136.35 -30 134.7 -30 133 C-29.38511719 132.87882813 -28.77023437 132.75765625 -28.13671875 132.6328125 C-27.32847656 132.46523438 -26.52023437 132.29765625 -25.6875 132.125 C-24.88699219 131.96257812 -24.08648438 131.80015625 -23.26171875 131.6328125 C-20.74698882 131.05521001 -20.74698882 131.05521001 -18 129 C-17.05924222 126.17772665 -16.87046281 124.44357458 -16.85955811 121.5213623 C-16.85384796 120.604431 -16.84813782 119.68749969 -16.84225464 118.74278259 C-16.84113678 117.73905106 -16.84001892 116.73531952 -16.83886719 115.70117188 C-16.83390228 114.64241348 -16.82893738 113.58365509 -16.82382202 112.49281311 C-16.80919685 108.98478551 -16.80239883 105.47680309 -16.796875 101.96875 C-16.79112516 99.53641762 -16.7853674 97.10408527 -16.77960205 94.67175293 C-16.76909195 89.57071725 -16.7632489 84.46969733 -16.75976562 79.36865234 C-16.75427183 72.82116531 -16.73022479 66.27388529 -16.70179367 59.72646332 C-16.68320645 54.70285423 -16.67796385 49.67929548 -16.67642975 44.65565491 C-16.67339533 42.24104171 -16.66534045 39.82642956 -16.65224457 37.41184998 C-16.63526129 34.04068027 -16.6370452 30.67002279 -16.64355469 27.29882812 C-16.62973251 25.79323082 -16.62973251 25.79323082 -16.6156311 24.25721741 C-16.62120026 23.3402861 -16.62676941 22.4233548 -16.63250732 21.4786377 C-16.63104076 20.68149605 -16.6295742 19.8843544 -16.6280632 19.06305695 C-17.09634087 16.46561698 -17.93722622 15.59977729 -20 14 C-22.49443774 13.21201945 -22.49443774 13.21201945 -25.1875 12.8125 C-26.08855469 12.65394531 -26.98960937 12.49539063 -27.91796875 12.33203125 C-28.94857422 12.16767578 -28.94857422 12.16767578 -30 12 C-30 10.35 -30 8.7 -30 7 C-29.16339844 6.82984375 -28.32679688 6.6596875 -27.46484375 6.484375 C-19.52046618 4.83039606 -11.71010985 2.91634052 -3.88671875 0.76953125 C-1 0 -1 0 0 0 Z " fill="#FCFCFD" transform="translate(785,451)"/>
<path d="M0 0 C0.77528479 3.42573937 1.11918778 6.57239245 1.09765625 10.08203125 C1.09282227 11.47905273 1.09282227 11.47905273 1.08789062 12.90429688 C1.07532227 14.34385742 1.07532227 14.34385742 1.0625 15.8125 C1.05798828 16.79154297 1.05347656 17.77058594 1.04882812 18.77929688 C1.03708684 21.18626111 1.02066419 23.59309857 1 26 C-0.98 26 -2.96 26 -5 26 C-5.34611328 24.80503906 -5.34611328 24.80503906 -5.69921875 23.5859375 C-8.64253108 13.57952833 -8.64253108 13.57952833 -16.12109375 6.7578125 C-23.61667499 3.2798628 -31.65892809 2.44961717 -39.5 5.25 C-44.38748407 8.67123885 -47.43132295 12.13987072 -49 18 C-50.01896347 24.5900355 -48.7820776 29.55527934 -45.875 35.48046875 C-40.0977423 43.24365878 -32.02221244 47.48337001 -23.625 51.9375 C-10.38280615 58.96445743 4.05610958 67.33994517 9.33984375 82.23046875 C11.46800114 91.15865569 10.77015884 100.08820428 6 108 C-2.55791082 119.51894796 -13.74712435 126.72214316 -28 129 C-38.36314755 129.7044231 -47.97213215 128.38608596 -58 126 C-59.56621094 125.66935547 -59.56621094 125.66935547 -61.1640625 125.33203125 C-63.95967495 124.53846403 -65.79488261 123.89697872 -68 122 C-69.51597299 118.05847023 -69.70721235 114.18484412 -70 110 C-70.35042359 108.03712004 -70.7242031 106.07821691 -71.125 104.125 C-71.82223275 100.36103257 -72.20772537 96.84291933 -72 93 C-68.535 92.505 -68.535 92.505 -65 92 C-64.78085937 92.7734375 -64.56171875 93.546875 -64.3359375 94.34375 C-60.56967618 106.71423434 -54.84798442 113.29120935 -43.875 119.875 C-36.9215216 122.53837361 -27.86117205 122.1354524 -21 119.4375 C-15.79256985 116.70287188 -12.58635532 112.66796122 -9.625 107.6875 C-8.04322231 100.88585594 -8.32243652 94.46860757 -11.59521484 88.22216797 C-16.65149619 80.22385848 -25.60750492 76.27846552 -33.75 72.125 C-61.47780356 57.54187216 -61.47780356 57.54187216 -66.11328125 43.66796875 C-68.8194337 32.47379628 -67.51948262 23.81821934 -61.96875 14.02734375 C-56.24269303 5.22239503 -48.69237807 0.82935473 -39 -3 C-25.74447735 -5.5043007 -12.89155946 -3.38732302 0 0 Z " fill="#FBFAFB" transform="translate(835,643)"/>
<path d="M0 0 C6.5380185 3.86832761 11.58132941 9.01706354 13.6875 16.4375 C14.12935142 20.64040539 14.12848369 24.82358619 14.12890625 29.046875 C14.14211411 30.25063782 14.15532196 31.45440063 14.16893005 32.69464111 C14.20971455 36.5256181 14.23147695 40.35635538 14.25 44.1875 C14.27377233 48.03285478 14.30183195 51.87798342 14.34178162 55.72320557 C14.3661766 58.11257024 14.38100419 60.50205535 14.38539124 62.89154053 C14.39557785 63.96986145 14.40576447 65.04818237 14.41625977 66.15917969 C14.42267235 67.58312042 14.42267235 67.58312042 14.42921448 69.03582764 C14.52844041 71.70000751 14.52844041 71.70000751 16.6875 74.4375 C19.43376822 74.57038395 21.96248923 74.5763213 24.6875 74.4375 C26.0075 74.4375 27.3275 74.4375 28.6875 74.4375 C28.05241025 79.78513981 25.83144578 81.62327976 21.80859375 84.921875 C17.4108907 88.06424845 13.02981292 89.10528912 7.6875 88.4375 C4.35107576 86.54031759 1.03201739 84.52239131 -1.3125 81.4375 C-1.67936093 79.77789103 -2.01587988 78.11109057 -2.3125 76.4375 C-3.34697266 77.23414063 -3.34697266 77.23414063 -4.40234375 78.046875 C-13.11922406 84.59948187 -20.09342447 89.36421006 -31.3125 88.94921875 C-37.75895596 87.84962796 -43.11379426 84.21948823 -47.4375 79.375 C-50.6112295 74.24470608 -50.30143208 68.19698471 -49.3125 62.4375 C-45.6333241 54.01925317 -39.28187424 49.54352278 -31 46.0625 C-30.31083496 45.76649902 -29.62166992 45.47049805 -28.91162109 45.16552734 C-22.49801587 42.44420809 -15.9882282 39.99184338 -9.4453125 37.6015625 C-6.46136762 36.55679937 -6.46136762 36.55679937 -4.3125 35.4375 C-4.20378033 32.89466766 -4.12487599 30.35654912 -4.0625 27.8125 C-4.02898438 27.09964844 -3.99546875 26.38679687 -3.9609375 25.65234375 C-3.86520171 20.43474303 -4.87032848 17.5754951 -8.3125 13.4375 C-12.94756889 9.98391926 -16.37115962 8.98443644 -22.1015625 8.80859375 C-25.54764303 9.78883927 -27.03859653 11.71537517 -29.3125 14.4375 C-30.84013713 17.46585555 -32.20399295 20.46886488 -33.453125 23.6171875 C-34.2734375 25.453125 -34.2734375 25.453125 -36.3125 28.4375 C-40.0390625 29.359375 -40.0390625 29.359375 -43.3125 29.4375 C-46.90931698 21.79426393 -46.90931698 21.79426393 -46.3125 17.4375 C-37.26295959 4.46788217 -15.47391671 -7.02811422 0 0 Z " fill="#FAF9FB" transform="translate(910.3125,502.5625)"/>
<path d="M0 0 C5.57944706 3.55832083 11.1072277 8.52090185 13.234375 14.90234375 C13.33066776 16.70630265 13.36978114 18.51355278 13.3762207 20.32006836 C13.38325516 21.42809311 13.39028961 22.53611786 13.39753723 23.67771912 C13.40170151 24.87461868 13.40586578 26.07151825 13.41015625 27.3046875 C13.43334782 29.82878444 13.45746488 32.35287302 13.48242188 34.87695312 C13.51759798 38.86464422 13.54691504 42.85177089 13.56030273 46.83959961 C13.57573611 50.68251033 13.61591167 54.52451487 13.66015625 58.3671875 C13.65824783 59.56206284 13.65633942 60.75693817 13.65437317 61.98802185 C13.67086411 63.09919876 13.68735504 64.21037567 13.7043457 65.35522461 C13.71021194 66.33212753 13.71607819 67.30903046 13.72212219 68.3155365 C14.38362914 71.65605693 15.53231019 72.88009498 18.234375 74.90234375 C21.59952055 74.7282845 24.21080495 74.41412877 27.234375 72.90234375 C27.671875 75.52734375 27.671875 75.52734375 27.234375 78.90234375 C22.87734606 84.16866569 17.03869146 87.54624007 10.296875 88.40234375 C6.3522168 88.2202826 3.66304364 86.97975402 0.578125 84.546875 C-1.85825306 81.56514487 -1.70184657 78.66527091 -1.765625 74.90234375 C-2.425625 74.90234375 -3.085625 74.90234375 -3.765625 74.90234375 C-3.765625 75.56234375 -3.765625 76.22234375 -3.765625 76.90234375 C-5.77557992 78.50076488 -7.77243177 79.9610514 -9.890625 81.40234375 C-10.74527344 82.00755859 -10.74527344 82.00755859 -11.6171875 82.625 C-18.98088291 87.69590843 -25.90862834 88.8113513 -34.765625 87.90234375 C-40.77725143 86.31928212 -44.08726604 82.85416879 -47.63671875 77.90234375 C-50.08729116 73.56084522 -50.38129597 68.80094321 -49.765625 63.90234375 C-47.7640753 57.20926354 -43.35078619 52.86958565 -37.765625 48.90234375 C-33.72900012 46.82315333 -29.57341649 45.19160257 -25.328125 43.58984375 C-24.24724609 43.16123047 -23.16636719 42.73261719 -22.05273438 42.29101562 C-16.00452131 39.9399516 -10.14043743 38.11563613 -3.765625 36.90234375 C-3.6840168 34.52663832 -3.62485278 32.15378534 -3.578125 29.77734375 C-3.55298828 29.1121875 -3.52785156 28.44703125 -3.50195312 27.76171875 C-3.4322122 23.0193356 -4.26600316 19.91812966 -6.765625 15.90234375 C-11.14914649 11.70941015 -14.74107101 9.280413 -20.765625 8.52734375 C-24.66555067 9.01483446 -25.93005816 10.1878072 -28.765625 12.90234375 C-30.70444469 15.98658839 -32.19010102 19.29207276 -33.7265625 22.58984375 C-35.31815938 25.81123583 -36.29058601 27.64997929 -39.515625 29.36328125 C-40.629375 29.63011719 -40.629375 29.63011719 -41.765625 29.90234375 C-44.23488156 26.23587189 -45.66857735 23.95045837 -46.078125 19.52734375 C-42.84627914 10.60129327 -34.89709847 5.96412044 -26.66015625 2.09375 C-18.25533438 -1.36572459 -8.79551037 -3.49087347 0 0 Z " fill="#FBFAFC" transform="translate(810.765625,318.09765625)"/>
<path d="M0 0 C6.65437362 5.41561194 11.24361844 10.6002775 12.63671875 19.33203125 C12.72730063 21.58059324 12.76681011 23.83165124 12.76171875 26.08203125 C12.76558594 27.80679688 12.76558594 27.80679688 12.76953125 29.56640625 C12.63671875 32.33203125 12.63671875 32.33203125 11.63671875 33.33203125 C9.97933432 33.4255004 8.31797231 33.44948102 6.65795898 33.44555664 C5.59693466 33.44548111 4.53591034 33.44540558 3.44273376 33.44532776 C1.71151024 33.43758583 1.71151024 33.43758583 -0.0546875 33.4296875 C-1.22966293 33.42827255 -2.40463837 33.4268576 -3.61521912 33.42539978 C-7.38543189 33.41978117 -11.15558629 33.40722551 -14.92578125 33.39453125 C-17.47460852 33.38951865 -20.02343672 33.38495533 -22.57226562 33.38085938 C-28.83595758 33.36980569 -35.09961524 33.35304946 -41.36328125 33.33203125 C-41.07441513 35.71843141 -40.77772947 38.10342832 -40.4765625 40.48828125 C-40.39635864 41.15762695 -40.31615479 41.82697266 -40.23352051 42.51660156 C-39.16424814 50.86662346 -36.34295166 59.18017138 -30.36328125 65.33203125 C-23.06799311 70.83925857 -16.48557891 72.46298277 -7.36328125 71.33203125 C-1.6115485 69.26943635 3.573131 66.47653436 8.13671875 62.39453125 C10.63671875 60.33203125 10.63671875 60.33203125 13.01171875 60.51953125 C13.54796875 60.78765625 14.08421875 61.05578125 14.63671875 61.33203125 C13.61014418 68.72596705 8.48021285 74.12932749 2.76171875 78.64453125 C-6.7136068 85.28094603 -15.91226621 87.23438649 -27.36328125 86.33203125 C-37.82554493 84.12347137 -45.85633198 79.37166114 -52.046875 70.6171875 C-58.94647706 58.64013347 -60.25375807 44.19491889 -57.6796875 30.765625 C-54.11443643 19.41895458 -47.74544918 8.73829273 -37.359375 2.5390625 C-27.06616739 -2.77804229 -10.67885837 -6.79127397 0 0 Z " fill="#FBFAFB" transform="translate(1226.36328125,504.66796875)"/>
<path d="M0 0 C9.66315971 5.23852762 14.45560444 13.78789395 17.52734375 24.06640625 C18.57387625 28.3962907 19.06385206 32.56335671 19.23828125 37.0078125 C19.30144531 37.88050781 19.36460938 38.75320313 19.4296875 39.65234375 C19.86230891 49.40725873 17.24917946 58.74413689 10.92578125 66.31640625 C6.54787817 70.70444337 2.53894244 73.27074119 -3.76171875 73.5703125 C-11.27204166 73.11096553 -15.89520479 70.22002834 -21.01171875 64.8203125 C-31.16354641 52.59830822 -32.15306174 36.33443898 -30.76171875 21.0078125 C-29.20366968 12.72451362 -25.03099986 6.5791463 -18.76171875 1.0078125 C-13.2558942 -2.51546206 -5.98342762 -2.14963312 0 0 Z " fill="#251158" transform="translate(1053.76171875,325.9921875)"/>
<path d="M0 0 C0.00423194 0.66206609 0.00846388 1.32413218 0.01282406 2.00626087 C0.11606496 18.10524794 0.22469285 34.20418823 0.33933926 50.30309772 C0.39465073 58.0883617 0.44812933 65.87363026 0.49731445 73.65893555 C0.54018171 80.44347985 0.58646614 87.2279907 0.63687855 94.0124833 C0.663459 97.6058234 0.68831157 101.19915696 0.70907402 104.79253578 C0.73229849 108.80094972 0.76315097 112.80926972 0.79467773 116.81762695 C0.80331093 118.61081612 0.80331093 118.61081612 0.81211853 120.44023132 C0.82190735 121.52978119 0.83169617 122.61933105 0.84178162 123.74189758 C0.84823417 124.69042256 0.85468672 125.63894754 0.8613348 126.61621571 C0.9047578 129.14861029 0.9047578 129.14861029 2 132 C5.36056804 134.32654711 9.02739789 134.4753167 13 135 C14 136 14 136 14 141 C-0.85 141 -15.7 141 -31 141 C-31 139.02 -31 137.04 -31 135 C-30.30132813 134.86722656 -29.60265625 134.73445312 -28.8828125 134.59765625 C-27.51769531 134.33275391 -27.51769531 134.33275391 -26.125 134.0625 C-25.22007813 133.88847656 -24.31515625 133.71445312 -23.3828125 133.53515625 C-21.00043683 133.10036299 -21.00043683 133.10036299 -19 132 C-18.05047725 129.15143176 -17.86826744 127.36919838 -17.85282898 124.41419983 C-17.84567368 123.47347122 -17.83851837 122.53274261 -17.83114624 121.56350708 C-17.82711288 120.01818802 -17.82711288 120.01818802 -17.82299805 118.44165039 C-17.81314125 116.81203117 -17.81314125 116.81203117 -17.80308533 115.14949036 C-17.78334882 111.54887832 -17.7716909 107.94830794 -17.76171875 104.34765625 C-17.75764322 103.11975309 -17.7535677 101.89184994 -17.74936867 100.62673759 C-17.73066055 94.80150075 -17.71609258 88.97628033 -17.7077567 83.15101916 C-17.69797623 76.42759078 -17.67163138 69.70449092 -17.63125581 62.98117834 C-17.59747667 57.15647119 -17.58561355 51.33187451 -17.58155251 45.50707817 C-17.57666981 43.02908533 -17.56500841 40.55109643 -17.54651451 38.0731678 C-17.52227495 34.61109054 -17.52306026 31.14987953 -17.5300293 27.68774414 C-17.51721924 26.65955566 -17.50440918 25.63136719 -17.49121094 24.57202148 C-17.45144268 19.10326744 -17.45144268 19.10326744 -19.89558411 14.37010193 C-22.16274271 12.89404466 -23.56827567 12.42878162 -26.25 12.25 C-27.4875 12.1675 -28.725 12.085 -30 12 C-30.33 10.35 -30.66 8.7 -31 7 C-26.02676597 5.21699166 -21.02868897 4.04306297 -15.875 2.9375 C-14.28896904 2.59287776 -12.70302831 2.24783995 -11.1171875 1.90234375 C-10.07473877 1.67792603 -10.07473877 1.67792603 -9.01123047 1.44897461 C-7.6438639 1.14373218 -6.28316692 0.80730566 -4.93017578 0.44360352 C-3 0 -3 0 0 0 Z " fill="#F6F5F8" transform="translate(1126,264)"/>
<path d="M0 0 C2.38297718 1.69211405 3.54056433 2.92480887 5.25 5.375 C5.45069335 10.69337371 2.55717529 14.56328215 -0.625 18.6875 C-1.615 19.3475 -2.605 20.0075 -3.625 20.6875 C-8.7398684 19.64894804 -11.43621228 15.95817582 -14.6875 12.1875 C-19.66857651 6.11147944 -19.66857651 6.11147944 -26.7734375 3.38671875 C-32.79053155 3.35504983 -36.80406758 4.10783154 -41.40625 8.31640625 C-50.17017063 17.50738233 -52.1512781 28.48589689 -51.8984375 40.82421875 C-51.30177105 49.25426327 -48.38407459 55.90855948 -42.5625 62.03125 C-36.42579708 67.27714121 -29.60628365 69.05278181 -21.67578125 68.96875 C-13.82301709 68.24480759 -7.17096749 65.23346749 -1.625 59.6875 C-1.068125 58.924375 -0.51125 58.16125 0.0625 57.375 C0.495625 56.818125 0.92875 56.26125 1.375 55.6875 C2.365 55.6875 3.355 55.6875 4.375 55.6875 C5.0703125 57.3515625 5.0703125 57.3515625 5.375 59.6875 C3.46308228 63.61821282 0.88592794 67.11605592 -1.625 70.6875 C-2.23408203 71.59822266 -2.23408203 71.59822266 -2.85546875 72.52734375 C-7.56333524 78.93480103 -15.91141455 83.35757147 -23.625 84.6875 C-36.61610582 85.7170545 -47.37162324 82.88382294 -57.625 74.6875 C-65.8528903 66.59699562 -69.65583375 55.56423969 -69.91796875 44.18945312 C-70.02816859 30.07285391 -67.41927956 19.39698274 -57.625 8.6875 C-41.94406166 -5.92531645 -19.3319198 -10.75923723 0 0 Z " fill="#FAF9FB" transform="translate(1262.625,322.3125)"/>
<path d="M0 0 C1.05058594 -0.01160156 2.10117188 -0.02320313 3.18359375 -0.03515625 C16.76584092 0.01584092 16.76584092 0.01584092 21.125 4.375 C21.21151611 5.79070123 21.23204904 7.210595 21.22265625 8.62890625 C21.21943359 9.48291016 21.21621094 10.33691406 21.21289062 11.21679688 C21.20032227 12.56354492 21.20032227 12.56354492 21.1875 13.9375 C21.18298828 14.83919922 21.17847656 15.74089844 21.17382812 16.66992188 C21.16200225 18.90501314 21.1455222 21.13997437 21.125 23.375 C19.475 23.375 17.825 23.375 16.125 23.375 C15.79628906 22.48748047 15.79628906 22.48748047 15.4609375 21.58203125 C12.93569816 15.2894633 10.34495876 11.48497938 4.125 8.375 C-3.96665061 7.49474904 -3.96665061 7.49474904 -11.0625 10.75 C-13.72976806 14.61293995 -14.32977973 16.6452908 -13.875 21.375 C-9.77357042 29.93450521 -0.93089302 33.39595298 7.1875 37.3125 C15.00855182 41.10329288 22.27006131 45.21160042 26.125 53.375 C26.44199015 56.24504592 26.60253714 58.82546991 26.5625 61.6875 C26.55347656 62.44788574 26.54445313 63.20827148 26.53515625 63.99169922 C26.28330939 72.12250524 24.24611659 76.59953097 18.3125 82.1875 C9.13776942 89.67394372 -1.38553112 90.23586618 -12.875 89.375 C-24.0537176 87.58918827 -24.0537176 87.58918827 -28.875 84.375 C-30.40171055 77.15782285 -29.96782175 69.71823187 -29.875 62.375 C-28.225 62.375 -26.575 62.375 -24.875 62.375 C-24.61847656 63.17164063 -24.36195312 63.96828125 -24.09765625 64.7890625 C-21.25236211 72.66391698 -18.39639263 76.63646889 -10.875 80.375 C-10.215 80.705 -9.555 81.035 -8.875 81.375 C-1.23200251 82.13803888 -1.23200251 82.13803888 5.75 79.5 C8.12316024 77.3766461 8.98431473 76.52815793 9.36328125 73.421875 C9.54344137 67.84639339 9.02888517 64.65975202 5.125 60.375 C0.0597165 56.25235894 -5.73502502 53.37250387 -11.5 50.375 C-18.66834804 46.63649202 -25.27227433 42.9807542 -28.875 35.375 C-30.92875536 28.82046162 -31.19123156 20.32721628 -28.375 14 C-21.81190573 2.9916894 -12.12448215 -0.1329115 0 0 Z " fill="#FBFAFC" transform="translate(1278.875,501.625)"/>
<path d="M0 0 C2.475 0.495 2.475 0.495 5 1 C5 7.93 5 14.86 5 22 C6.93746094 21.98839844 8.87492188 21.97679687 10.87109375 21.96484375 C13.39322821 21.95546779 15.9153637 21.94636738 18.4375 21.9375 C19.71689453 21.92912109 20.99628906 21.92074219 22.31445312 21.91210938 C24.13686523 21.90727539 24.13686523 21.90727539 25.99609375 21.90234375 C27.12200928 21.89710693 28.2479248 21.89187012 29.40795898 21.88647461 C32 22 32 22 33 23 C33.0979057 24.49738124 33.12974864 25.99942892 33.125 27.5 C33.12886719 28.72203125 33.12886719 28.72203125 33.1328125 29.96875 C33 32 33 32 32 33 C30.00035018 33.08758003 27.9976389 33.10696576 25.99609375 33.09765625 C24.78115234 33.09443359 23.56621094 33.09121094 22.31445312 33.08789062 C21.03505859 33.07951172 19.75566406 33.07113281 18.4375 33.0625 C17.15423828 33.05798828 15.87097656 33.05347656 14.54882812 33.04882812 C11.36583978 33.03699545 8.18294238 33.02051068 5 33 C5.06704947 40.72329358 5.15687646 48.44608293 5.26245117 56.16894531 C5.29568038 58.79551191 5.3237185 61.42214957 5.34643555 64.04882812 C5.38001728 67.82713061 5.43233753 71.60478305 5.48828125 75.3828125 C5.49467117 76.55490265 5.5010611 77.7269928 5.50764465 78.93460083 C5.63070232 85.77743372 5.92761192 90.92761192 11 96 C17.1673497 96.98585887 21.96377281 96.09310527 27.2109375 92.77734375 C29 92 29 92 31.1015625 92.19140625 C33 93 33 93 35 96 C28.25007443 103.39619504 21.98685943 108.44439239 11.75390625 109.15625 C4.34231025 109.42699323 -1.17889573 108.50764824 -6.8125 103.5 C-12.56663118 95.62009192 -12.41879002 85.20919267 -12.29296875 75.89453125 C-12.28872391 74.6893132 -12.28447906 73.48409515 -12.28010559 72.24235535 C-12.26345222 68.43216624 -12.22582443 64.62252644 -12.1875 60.8125 C-12.17243595 58.21289832 -12.15875057 55.61328826 -12.14648438 53.01367188 C-12.11359235 46.67557295 -12.06190265 40.33787927 -12 34 C-15.96 34 -19.92 34 -24 34 C-24 28.40949109 -23.72013331 28.11391405 -20.0625 24.375 C-12.80377466 16.70540341 -6.2282886 8.52420675 0 0 Z " fill="#F8F7FA" transform="translate(864,298)"/>
<path d="M0 0 C1 1 1 1 1.09765625 4.16015625 C1.08605469 5.44792969 1.07445312 6.73570312 1.0625 8.0625 C1.05347656 9.35285156 1.04445313 10.64320313 1.03515625 11.97265625 C1.02355469 12.97167969 1.01195312 13.97070312 1 15 C2.06927734 14.11248047 2.06927734 14.11248047 3.16015625 13.20703125 C5.14104207 11.5727338 7.13107323 9.94947398 9.12890625 8.3359375 C10.74701128 7.01943844 12.35135046 5.68400102 13.90234375 4.2890625 C18.1378561 0.70596403 21.92056676 0.31065821 27.41015625 0.57421875 C32.01465008 1.33121698 34.57432879 3.66937353 37.875 6.75 C39.57380677 10.14761354 39.76250065 13.33999686 39 17 C36.54196993 20.5008307 34.78055583 21.7298076 30.75 23.125 C26.19800772 22.97326692 23.94769569 21.47065822 20.125 19.171875 C17.07739705 17.49121161 15.40487693 17.20311391 12 18 C9.82047862 19.41126097 7.82559508 20.92657452 5.83203125 22.58984375 C4 24 4 24 1 25 C1.06694699 32.19027881 1.15673283 39.3800116 1.26245117 46.56982422 C1.29571877 49.01604726 1.32374491 51.4623474 1.34643555 53.90869141 C1.37994708 57.42383705 1.43226276 60.93827495 1.48828125 64.453125 C1.49467117 65.5480426 1.5010611 66.64296021 1.50764465 67.77105713 C1.53733589 69.30219147 1.53733589 69.30219147 1.56762695 70.86425781 C1.57873001 71.76138489 1.58983307 72.65851196 1.60127258 73.58282471 C2.08191851 76.49660844 2.97008622 77.8774725 5 80 C7.91300417 80.87714573 7.91300417 80.87714573 11.125 81.1875 C16.93259972 81.93259972 16.93259972 81.93259972 18 83 C18 84.65 18 86.3 18 88 C2.49 88 -13.02 88 -29 88 C-29 86.02 -29 84.04 -29 82 C-27.95199219 81.83564453 -27.95199219 81.83564453 -26.8828125 81.66796875 C-25.97273437 81.50941406 -25.06265625 81.35085938 -24.125 81.1875 C-23.22007812 81.03667969 -22.31515625 80.88585937 -21.3828125 80.73046875 C-18.65587522 80.16948699 -18.65587522 80.16948699 -17 77 C-16.68896653 74.37370002 -16.68896653 74.37370002 -16.7253418 71.3828125 C-16.71580978 70.23151855 -16.70627777 69.08022461 -16.69645691 67.89404297 C-16.69736832 66.65025879 -16.69827972 65.40647461 -16.69921875 64.125 C-16.69493362 62.84898926 -16.6906485 61.57297852 -16.68623352 60.25830078 C-16.68048571 57.55812846 -16.67906019 54.85833787 -16.68432617 52.15820312 C-16.69012532 48.69784129 -16.67317821 45.23801392 -16.6499815 41.77774048 C-16.63171162 38.47683077 -16.63542915 35.1759512 -16.63671875 31.875 C-16.627509 30.63121582 -16.61829926 29.38743164 -16.60881042 28.10595703 C-16.61815361 26.37901611 -16.61815361 26.37901611 -16.62768555 24.6171875 C-16.62705612 23.60253418 -16.6264267 22.58788086 -16.6257782 21.54248047 C-16.79484717 18.96522228 -16.79484717 18.96522228 -18.38191223 17.19458008 C-20.43964015 15.67542839 -22.18308286 15.28434671 -24.6875 14.8125 C-25.49574219 14.65394531 -26.30398438 14.49539063 -27.13671875 14.33203125 C-28.05904297 14.16767578 -28.05904297 14.16767578 -29 14 C-29.33 12.35 -29.66 10.7 -30 9 C-25.9422595 7.48689875 -21.87810033 5.99184012 -17.8125 4.5 C-16.66201172 4.07074219 -15.51152344 3.64148438 -14.32617188 3.19921875 C-13.21435547 2.79316406 -12.10253906 2.38710938 -10.95703125 1.96875 C-9.93585205 1.59169922 -8.91467285 1.21464844 -7.86254883 0.82617188 C-5.05837641 0.01684825 -2.89797887 -0.2455093 0 0 Z " fill="#FAF9FB" transform="translate(971,501)"/>
<path d="M0 0 C2.475 0.495 2.475 0.495 5 1 C5 7.93 5 14.86 5 22 C13.91 22 22.82 22 32 22 C32 25.3 32 28.6 32 32 C31 33 31 33 28.49975586 33.11352539 C27.41573486 33.10828857 26.33171387 33.10305176 25.21484375 33.09765625 C24.04501953 33.09443359 22.87519531 33.09121094 21.66992188 33.08789062 C20.43822266 33.07951172 19.20652344 33.07113281 17.9375 33.0625 C16.08415039 33.05573242 16.08415039 33.05573242 14.19335938 33.04882812 C11.12885883 33.03699608 8.06445279 33.02051173 5 33 C5.06718236 40.54426148 5.15706093 48.08801217 5.26245117 55.63183594 C5.29563094 58.19622722 5.32368432 60.76069031 5.34643555 63.32519531 C5.3801085 67.01919042 5.43243307 70.7125316 5.48828125 74.40625 C5.49467117 75.5461438 5.5010611 76.6860376 5.50764465 77.86047363 C5.6247924 84.25529217 6.23321282 89.20006724 9 95 C11.33640844 97.00263581 13.00677674 97.00096811 16.0625 97.4375 C21.60622279 96.8215308 26.06259856 94.4999501 31 92 C31.99 92.99 32.98 93.98 34 95 C32.68300848 100.59721397 28.61762367 103.08612023 24 106 C17.19195042 110.01087044 10.71178541 109.74390213 3 109 C-2.40225035 107.49802905 -6.02365602 104.80794028 -9 100 C-10.6622043 95.76334069 -11.24588603 92.25853214 -11.22705078 87.71923828 C-11.22682419 85.88801926 -11.22682419 85.88801926 -11.22659302 84.01980591 C-11.21627045 82.71647308 -11.20594788 81.41314026 -11.1953125 80.0703125 C-11.19157802 78.71125497 -11.1887331 77.35219474 -11.18673706 75.99313354 C-11.17913483 72.43225551 -11.1595161 68.87154303 -11.1373291 65.31072998 C-11.11679679 61.67071776 -11.10771962 58.03067855 -11.09765625 54.390625 C-11.07626661 47.26034284 -11.04111266 40.13019971 -11 33 C-15.29 33 -19.58 33 -24 33 C-24.33 32.01 -24.66 31.02 -25 30 C-23.98828125 28.44921875 -23.98828125 28.44921875 -22.3125 26.6875 C-18.77999899 22.84998385 -15.33299671 18.95869839 -11.9375 15 C-11.41744385 14.39486572 -10.8973877 13.78973145 -10.36157227 13.16625977 C-6.71947592 8.90413368 -3.27716964 4.5516245 0 0 Z " fill="#FCFBFC" transform="translate(1082,482)"/>
<path d="M0 0 C0.00879936 1.45579216 0.00879936 1.45579216 0.01777649 2.94099426 C0.07494296 12.07894885 0.14767245 21.21666407 0.23571491 30.35437489 C0.2804784 35.05239466 0.31972118 39.7503265 0.34643555 44.44848633 C0.3724091 48.98089665 0.41276885 53.5129697 0.46318626 58.04517174 C0.47989537 59.7759145 0.49138441 61.50671564 0.49761391 63.23752785 C0.50721132 65.65846903 0.53521671 68.07853949 0.56762695 70.49926758 C0.56547432 71.57712524 0.56547432 71.57712524 0.5632782 72.67675781 C0.63590801 76.54826594 0.63590801 76.54826594 2.38566589 79.9094696 C4.41188946 81.2782435 6.35023226 81.97615764 8.6875 82.6875 C9.49574219 82.93886719 10.30398438 83.19023438 11.13671875 83.44921875 C11.75160156 83.63097656 12.36648438 83.81273437 13 84 C13 85.65 13 87.3 13 89 C-1.19 89 -15.38 89 -30 89 C-30 87.02 -30 85.04 -30 83 C-29.30132813 82.87882813 -28.60265625 82.75765625 -27.8828125 82.6328125 C-26.97273437 82.46523438 -26.06265625 82.29765625 -25.125 82.125 C-24.22007812 81.96257812 -23.31515625 81.80015625 -22.3828125 81.6328125 C-19.83494012 81.16955297 -19.83494012 81.16955297 -18 79 C-17.67904308 76.39920652 -17.67904308 76.39920652 -17.70947266 73.32861328 C-17.69671295 72.14042999 -17.68395325 70.9522467 -17.67080688 69.72805786 C-17.66858124 68.43850189 -17.66635559 67.14894592 -17.6640625 65.8203125 C-17.6540773 63.84114334 -17.6540773 63.84114334 -17.64389038 61.82199097 C-17.63190551 59.02598806 -17.6282107 56.23010881 -17.62939453 53.43408203 C-17.62959763 49.85372268 -17.6023123 46.27415799 -17.56785011 42.69398689 C-17.54559346 39.94013846 -17.54155661 37.1864815 -17.54261398 34.43255234 C-17.53910946 32.47158691 -17.51743474 30.51068124 -17.49551392 28.54983521 C-17.50166718 27.3553476 -17.50782043 26.16085999 -17.51416016 24.93017578 C-17.5098851 23.35370773 -17.5098851 23.35370773 -17.50552368 21.74539185 C-18.12416184 18.31063858 -19.30039797 17.14005884 -22 15 C-24.10938065 14.31883062 -24.10938065 14.31883062 -26.25 14.25 C-27.4875 14.1675 -28.725 14.085 -30 14 C-30 12.02 -30 10.04 -30 8 C-29.39003174 7.82871582 -28.78006348 7.65743164 -28.15161133 7.48095703 C-25.37110649 6.69845296 -22.59180137 5.91176734 -19.8125 5.125 C-18.85279297 4.85558594 -17.89308594 4.58617187 -16.90429688 4.30859375 C-15.97294922 4.04433594 -15.04160156 3.78007812 -14.08203125 3.5078125 C-12.80162964 3.14647217 -12.80162964 3.14647217 -11.49536133 2.77783203 C-8.95665248 2.03235694 -8.95665248 2.03235694 -6.43237305 0.90576172 C-4 0 -4 0 0 0 Z " fill="#F9F8FA" transform="translate(1045,500)"/>
<path d="M0 0 C0.00879936 1.4115461 0.00879936 1.4115461 0.01777649 2.85160828 C0.07501305 11.7240529 0.14777951 20.59625265 0.23571491 29.46844769 C0.28042438 34.02964699 0.31967921 38.59075686 0.34643555 43.15209961 C0.37246282 47.55484586 0.41286106 51.95724805 0.46318626 56.35978127 C0.4798589 58.03863047 0.49137072 59.7175392 0.49761391 61.39645958 C0.50725085 63.74994265 0.53530402 66.10254472 0.56762695 68.45581055 C0.56547432 69.49483017 0.56547432 69.49483017 0.5632782 70.55484009 C0.6465918 74.84970641 1.37225556 77.58167449 4 81 C6.22857246 82.22171716 6.22857246 82.22171716 8.6875 82.8125 C9.49574219 83.04582031 10.30398438 83.27914062 11.13671875 83.51953125 C12.05904297 83.75736328 12.05904297 83.75736328 13 84 C13 85.65 13 87.3 13 89 C-1.19 89 -15.38 89 -30 89 C-30 87.02 -30 85.04 -30 83 C-29.31292969 82.90203125 -28.62585937 82.8040625 -27.91796875 82.703125 C-27.01691406 82.55359375 -26.11585937 82.4040625 -25.1875 82.25 C-23.84751953 82.04117188 -23.84751953 82.04117188 -22.48046875 81.828125 C-19.36944637 80.78948446 -18.66523951 79.79390928 -17 77 C-16.56152271 74.36732124 -16.56152271 74.36732124 -16.64355469 71.46875 C-16.64055359 70.36080078 -16.63755249 69.25285156 -16.63446045 68.11132812 C-16.64680725 66.91958984 -16.65915405 65.72785156 -16.671875 64.5 C-16.67374817 63.27216797 -16.67562134 62.04433594 -16.67755127 60.77929688 C-16.68427318 58.18356613 -16.69819033 55.58784553 -16.71875 52.9921875 C-16.74987844 49.01552938 -16.75971891 45.03926784 -16.765625 41.0625 C-16.7747962 38.54166183 -16.78517234 36.02082769 -16.796875 33.5 C-16.80112488 32.30826172 -16.80537476 31.11652344 -16.80975342 29.88867188 C-16.81936096 28.78072266 -16.82896851 27.67277344 -16.83886719 26.53125 C-16.84910919 25.07041992 -16.84910919 25.07041992 -16.85955811 23.58007812 C-16.93290247 20.73162301 -16.93290247 20.73162301 -18 17 C-21.63 16.01 -25.26 15.02 -29 14 C-29.33 12.35 -29.66 10.7 -30 9 C-28.33324219 8.52820313 -28.33324219 8.52820313 -26.6328125 8.046875 C-19.22635287 5.92420066 -11.9483687 3.81347958 -4.8828125 0.69921875 C-3 0 -3 0 0 0 Z " fill="#FCFBFD" transform="translate(1175,316)"/>
<path d="M0 0 C0.01030746 0.95577942 0.02061493 1.91155884 0.03123474 2.89630127 C0.12896962 11.90139855 0.23170384 20.90642674 0.33933926 29.91141129 C0.39451543 34.5410145 0.44792696 39.17062409 0.49731445 43.80029297 C0.54503624 48.26774308 0.59738188 52.73511722 0.65294075 57.2024765 C0.67332889 58.90729634 0.69204778 60.61213698 0.70907402 62.31699371 C0.73319647 64.70391865 0.7632402 67.09070082 0.79467773 69.47753906 C0.80331093 70.53597771 0.80331093 70.53597771 0.81211853 71.61579895 C0.86251487 74.97967661 1.17568641 77.70274563 2 81 C5.63 81.99 9.26 82.98 13 84 C13 85.65 13 87.3 13 89 C-0.86 89 -14.72 89 -29 89 C-29 87.35 -29 85.7 -29 84 C-28.30132813 83.82984375 -27.60265625 83.6596875 -26.8828125 83.484375 C-25.97273438 83.24203125 -25.06265625 82.9996875 -24.125 82.75 C-23.22007813 82.51796875 -22.31515625 82.2859375 -21.3828125 82.046875 C-18.92287773 81.22424937 -18.92287773 81.22424937 -17.86724854 79.27354431 C-16.8357993 76.56953797 -16.74604144 74.46983837 -16.74121094 71.57641602 C-16.73175446 69.94936485 -16.73175446 69.94936485 -16.72210693 68.28944397 C-16.7261554 67.12271652 -16.73020386 65.95598907 -16.734375 64.75390625 C-16.73246155 63.55064194 -16.7305481 62.34737762 -16.72857666 61.10765076 C-16.72721578 58.56322012 -16.73090545 56.01878252 -16.73925781 53.47436523 C-16.74994904 49.58105848 -16.73936371 45.68821416 -16.7265625 41.79492188 C-16.72788429 39.32291565 -16.7304471 36.85090971 -16.734375 34.37890625 C-16.73032654 33.21420303 -16.72627808 32.04949982 -16.72210693 30.84950256 C-16.72841125 29.76164963 -16.73471558 28.67379669 -16.74121094 27.55297852 C-16.74280212 26.5990773 -16.74439331 25.64517609 -16.74603271 24.66236877 C-17.02609437 21.72644962 -17.6523576 19.62083126 -19 17 C-22.44450737 14.70366176 -24.93812283 14.45983515 -29 14 C-29.33 12.35 -29.66 10.7 -30 9 C-29.45907715 8.82041748 -28.9181543 8.64083496 -28.36083984 8.45581055 C-24.33207645 7.11591596 -20.30696369 5.76668241 -16.2890625 4.39453125 C-14.734375 3.8671875 -13.1796875 3.33984375 -11.625 2.8125 C-10.43583984 2.40354492 -10.43583984 2.40354492 -9.22265625 1.98632812 C-8.46082031 1.72916016 -7.69898438 1.47199219 -6.9140625 1.20703125 C-5.8923999 0.85862183 -5.8923999 0.85862183 -4.85009766 0.50317383 C-3 0 -3 0 0 0 Z " fill="#FCFCFD" transform="translate(1151,500)"/>
<path d="M0 0 C0.66 0 1.32 0 2 0 C2.37769531 1.20527344 2.75539063 2.41054688 3.14453125 3.65234375 C8.55891523 20.83793111 14.28094667 37.91344561 20 55 C7.79 55 -4.42 55 -17 55 C-11.45673048 36.62368188 -5.89956621 18.26521325 0 0 Z " fill="#241057" transform="translate(901,658)"/>
<path d="M0 0 C3.96857737 2.99668087 6.4815756 5.5697268 8.0625 10.3125 C8.5704081 16.53437421 8.81604356 22.05753901 5.0625 27.3125 C0.47623868 31.91129209 -3.29315441 33.47068545 -9.75 33.625 C-15.00540476 33.57428439 -17.96364201 32.98831864 -21.9375 29.3125 C-26.88538768 23.69597885 -27.40508435 20.07267876 -27.34765625 12.65625 C-26.72520717 7.58180796 -24.68001871 4.6833598 -20.9375 1.3125 C-15.12038018 -3.0165194 -6.43191585 -3.41002435 0 0 Z " fill="#1B0D4F" transform="translate(1011.9375,737.6875)"/>
<path d="M0 0 C0.17443566 4.39533148 0.28090701 8.78977266 0.375 13.1875 C0.45041016 15.05631836 0.45041016 15.05631836 0.52734375 16.96289062 C0.67191234 25.95023768 0.67191234 25.95023768 -1.22167969 28.90869141 C-2.7734375 30.23828125 -2.7734375 30.23828125 -6 32 C-6.68707031 32.4228125 -7.37414062 32.845625 -8.08203125 33.28125 C-12.02521419 34.75893974 -15.88392076 34.70801363 -20 34 C-23.87261387 32.11571325 -28.0232371 29.9535258 -30 26 C-30.46018839 21.39811609 -30.59243226 19.05321291 -28.3125 15 C-22.09774072 8.51965272 -9.23228327 0 0 0 Z " fill="#251357" transform="translate(808,360)"/>
<path d="M0 0 C0.23290742 4.54079891 0.37462237 9.08006094 0.5 13.625 C0.60054687 15.55279297 0.60054687 15.55279297 0.703125 17.51953125 C0.89504246 26.77954875 0.89504246 26.77954875 -1.62304688 30.21313477 C-6.33881632 33.96466989 -10.37286736 34.86991607 -16.3125 34.5234375 C-21.78615651 33.45734742 -25.45677825 30.77704322 -29.0625 26.625 C-30.37584888 22.94762313 -30.06914842 20.74201949 -29 17 C-23.28702783 9.6802544 -9.39964597 0 0 0 Z " fill="#221055" transform="translate(907,545)"/>
<path d="M0 0 C5.31758498 2.4618449 7.77780949 5.61546145 10 11 C10 14.63 10 18.26 10 22 C-0.89 22 -11.78 22 -23 22 C-21.70744979 12.95214854 -19.47366762 7.1569361 -12.28125 1.29296875 C-8.22673989 -1.00504982 -4.48487646 -0.9330951 0 0 Z " fill="#210F53" transform="translate(1209,509)"/>
<path d="M0 0 C3.55410006 0.86483101 5.21403929 2.68489799 7.34375 5.5703125 C9.11472673 9.11226596 8.37225671 12.84197569 7.34375 16.5703125 C4.89347455 19.49869047 3.14454122 21.13712018 -0.62109375 22.04296875 C-4.59271173 22.34026837 -6.56261159 21.62309051 -10.09375 19.6328125 C-12.94424581 16.22612238 -13.82068958 14.23849544 -14.00390625 9.86328125 C-13.47387381 6.36744932 -12.14968469 4.31563021 -9.671875 1.83203125 C-6.47174723 -0.17114951 -3.70767313 -0.25685687 0 0 Z " fill="#FAF9FB" transform="translate(1145.65625,461.4296875)"/>
<path d="M0 0 C2.97672584 1.77280561 5.42804007 3.85608015 7 7 C7.49337839 11.93378393 7.52463704 14.06919235 5.0625 18.4375 C1.62252532 21.31584616 -0.37842288 22.07749922 -4.77734375 22.3125 C-8.67346466 21.76471499 -10.35907923 19.83898983 -13 17 C-14.61429923 13.77140153 -14.59570657 10.49006347 -14 7 C-10.5289663 0.95159427 -6.83382694 -0.68338269 0 0 Z " fill="#FBFAFB" transform="translate(1171,277)"/>
<path d="M0 0 C2.87029869 1.79393668 4.49131638 2.98263276 6 6 C6.55512815 10.63213493 6.6364242 13.98172127 4.125 18 C0.89571928 21.03932303 -1.44480358 21.3917956 -5.89453125 21.359375 C-9.61593453 20.72418186 -11.40312849 18.66020984 -14 16 C-15.53214888 12.93570224 -15.22938548 10.3834358 -15 7 C-11.75358242 0.04339089 -7.16865857 -1.05643389 0 0 Z " fill="#FBFAFB" transform="translate(1041,462)"/>
<path d="M0 0 C3.96857737 2.99668087 6.4815756 5.5697268 8.0625 10.3125 C8.5704081 16.53437421 8.81604356 22.05753901 5.0625 27.3125 C0.47623868 31.91129209 -3.29315441 33.47068545 -9.75 33.625 C-15.00540476 33.57428439 -17.96364201 32.98831864 -21.9375 29.3125 C-26.88538768 23.69597885 -27.40508435 20.07267876 -27.34765625 12.65625 C-26.72520717 7.58180796 -24.68001871 4.6833598 -20.9375 1.3125 C-15.12038018 -3.0165194 -6.43191585 -3.41002435 0 0 Z M-22.9375 8.3125 C-24.91199669 12.26149337 -24.37520498 17.00840104 -23.9375 21.3125 C-21.77912421 25.78913127 -19.48779447 28.30190477 -14.9375 30.3125 C-9.27684821 31.78007639 -6.03336493 31.14353607 -0.9375 28.3125 C2.7413143 25.11353105 4.78072806 22.99626223 5.30078125 18.04296875 C5.46949943 12.26215106 5.10672113 8.79393423 1.0625 4.3125 C-2.81108678 0.79105748 -7.09273393 0.64079329 -12.13671875 0.75 C-16.91136643 1.70892506 -19.8605825 4.67614295 -22.9375 8.3125 Z " fill="#EEEBF2" transform="translate(1011.9375,737.6875)"/>
<path d="M0 0 C1.22589844 0.01353516 1.22589844 0.01353516 2.4765625 0.02734375 C3.41628906 0.04474609 3.41628906 0.04474609 4.375 0.0625 C4.375 0.7225 4.375 1.3825 4.375 2.0625 C5.035 2.7225 5.695 3.3825 6.375 4.0625 C2.745 4.0625 -0.885 4.0625 -4.625 4.0625 C-4.625 10.9925 -4.625 17.9225 -4.625 25.0625 C-3.305 25.0625 -1.985 25.0625 -0.625 25.0625 C-0.625 22.0925 -0.625 19.1225 -0.625 16.0625 C3.375 17.0625 3.375 17.0625 4.375 18.0625 C4.41580783 20.06208364 4.41754356 22.06295254 4.375 24.0625 C2.375 21.0625 2.375 21.0625 2.375 18.0625 C1.715 18.0625 1.055 18.0625 0.375 18.0625 C0.375 20.7025 0.375 23.3425 0.375 26.0625 C-0.285 26.0625 -0.945 26.0625 -1.625 26.0625 C-1.625 26.7225 -1.625 27.3825 -1.625 28.0625 C0.685 28.0625 2.995 28.0625 5.375 28.0625 C2.375 30.0625 2.375 30.0625 0.2890625 29.9609375 C-4.57727627 28.84815696 -8.04280594 27.7532454 -11.625 24.0625 C-14.48284222 19.34706034 -14.61828629 14.40417295 -13.625 9.0625 C-10.18034919 3.3963642 -6.72995476 -0.09614221 0 0 Z " fill="#180C49" transform="translate(1001.625,738.9375)"/>
<path d="M0 0 C3.3 0 6.6 0 10 0 C10.99 0.99 11.98 1.98 13 3 C12.6875 6.6875 12.6875 6.6875 12 10 C11.34 10 10.68 10 10 10 C10.474375 10.70125 10.94875 11.4025 11.4375 12.125 C13.08739857 15.16081337 13.60368464 17.59168786 14 21 C12.68 21 11.36 21 10 21 C9.81824219 20.43410156 9.63648438 19.86820313 9.44921875 19.28515625 C9.19785156 18.55167969 8.94648437 17.81820312 8.6875 17.0625 C8.44386719 16.33160156 8.20023438 15.60070312 7.94921875 14.84765625 C7.08759559 12.64067976 7.08759559 12.64067976 4 12 C4 14.97 4 17.94 4 21 C2.68 21 1.36 21 0 21 C0 14.07 0 7.14 0 0 Z " fill="#ECE7F1" transform="translate(997,743)"/>
<path d="M0 0 C2.74385934 2.74385934 2.94401431 4.78628765 3.12025452 8.60699463 C3.11803391 9.59294617 3.11581329 10.57889771 3.11352539 11.59472656 C3.11341209 13.27601654 3.11341209 13.27601654 3.11329651 14.99127197 C3.10813522 16.19555847 3.10297394 17.39984497 3.09765625 18.640625 C3.09553383 20.49660309 3.09553383 20.49660309 3.09336853 22.39007568 C3.0887211 25.67144941 3.07974347 28.95277373 3.06866455 32.23413086 C3.0584152 35.58577011 3.05394859 38.93741148 3.04882812 42.2890625 C3.03780025 48.85939431 3.02106296 55.42969311 3 62 C3.66 62 4.32 62 5 62 C5 63.32 5 64.64 5 66 C4.01 65.67 3.02 65.34 2 65 C0.63317926 62.26635853 0.83734537 60.04962521 0.79467773 56.98974609 C0.77473251 55.72858978 0.75478729 54.46743347 0.73423767 53.1680603 C0.71725335 51.78652063 0.70037454 50.40497966 0.68359375 49.0234375 C0.6630244 47.61381418 0.64202793 46.20419703 0.62062073 44.79458618 C0.56539805 41.08252965 0.51598969 37.37041743 0.46777344 33.65826416 C0.41755982 29.87108397 0.36187303 26.08398474 0.30664062 22.296875 C0.19905667 14.86465188 0.09761227 7.43236148 0 0 Z " fill="#15094B" transform="translate(841,515)"/>
<path d="M0 0 C1.20217503 2.40435006 1.03897118 3.68381369 0.87890625 6.3515625 C0.83056641 7.20234375 0.78222656 8.053125 0.73242188 8.9296875 C0.64831055 10.26386719 0.64831055 10.26386719 0.5625 11.625 C0.51029297 12.5221875 0.45808594 13.419375 0.40429688 14.34375 C0.2744565 16.56284012 0.13948661 18.78149871 0 21 C-3.23744415 20.27574143 -5.00564358 19.76892298 -7 17 C-7.87608551 11.90134021 -7.79674481 7.37369796 -5.1875 2.875 C-3 1 -3 1 0 0 Z " fill="#220F55" transform="translate(995,742)"/>
<path d="M0 0 C0.33 0 0.66 0 1 0 C1.09796875 0.58007812 1.1959375 1.16015625 1.296875 1.7578125 C2.29110094 6.95178593 3.36105899 10.97801257 7 15 C12.57500152 18.45119142 17.74097149 18.20254483 24 17 C23.34 18.32 22.68 19.64 22 21 C11.29355149 21.62367661 11.29355149 21.62367661 6.5 19.3125 C-0.84276117 12.52044592 -0.84276117 12.52044592 -1.1328125 7.87109375 C-1.13023437 7.06800781 -1.12765625 6.26492188 -1.125 5.4375 C-1.12886719 4.22900391 -1.12886719 4.22900391 -1.1328125 2.99609375 C-1 1 -1 1 0 0 Z " fill="#F3F0F5" transform="translate(986,750)"/>
<path d="M0 0 C0.66 0.33 1.32 0.66 2 1 C2.495 2.98 2.495 2.98 3 5 C-9.21 5 -21.42 5 -34 5 C-32 3 -32 3 -28.83544922 2.77294922 C-27.49182037 2.77326611 -26.1481659 2.78457819 -24.8046875 2.8046875 C-24.09724396 2.8075174 -23.38980042 2.81034729 -22.66091919 2.81326294 C-20.3987749 2.82446863 -18.13702485 2.84957321 -15.875 2.875 C-14.34245363 2.88502933 -12.80990106 2.89415526 -11.27734375 2.90234375 C-7.51807699 2.92440914 -3.75910536 2.95894104 0 3 C0 2.01 0 1.02 0 0 Z " fill="#10063F" transform="translate(918,708)"/>
<path d="M0 0 C0 0.66 0 1.32 0 2 C0.66 2.66 1.32 3.32 2 4 C-1.63 4 -5.26 4 -9 4 C-9 10.93 -9 17.86 -9 25 C-9.33 25 -9.66 25 -10 25 C-10.33 18.07 -10.66 11.14 -11 4 C-11.66 3.67 -12.32 3.34 -13 3 C-9.21656826 -0.94792877 -5.07874402 -0.29300446 0 0 Z " fill="#100742" transform="translate(1006,739)"/>
<path d="M0 0 C0.66 0 1.32 0 2 0 C2.86656998 2.74663704 3.71851786 5.4964243 4.5625 8.25 C4.80935547 9.02730469 5.05621094 9.80460938 5.31054688 10.60546875 C5.53935547 11.35957031 5.76816406 12.11367188 6.00390625 12.890625 C6.21861572 13.58188477 6.4333252 14.27314453 6.65454102 14.98535156 C7 17 7 17 6 21 C5.01 17.37 4.02 13.74 3 10 C1.68 10 0.36 10 -1 10 C-1 10.66 -1 11.32 -1 12 C-1.66 12 -2.32 12 -3 12 C-2.01 8.04 -1.02 4.08 0 0 Z " fill="#1C124A" transform="translate(901,658)"/>
<path d="M0 0 C0.66 0.33 1.32 0.66 2 1 C-1.83018868 6.81132075 -1.83018868 6.81132075 -3.6875 8.875 C-5.69117617 12.11904713 -5.68515742 15.221889 -6 19 C-6.33 19 -6.66 19 -7 19 C-7.144375 18.2575 -7.28875 17.515 -7.4375 16.75 C-7.90604806 14.10566062 -7.90604806 14.10566062 -8.70703125 12.0859375 C-9 10 -9 10 -7.890625 7.9296875 C-7.07851563 6.91261719 -7.07851563 6.91261719 -6.25 5.875 C-5.71890625 5.19179688 -5.1878125 4.50859375 -4.640625 3.8046875 C-3 2 -3 2 0 0 Z " fill="#E3DEEA" transform="translate(994,737)"/>
<path d="M0 0 C0.66 0 1.32 0 2 0 C3.07525194 2.65228812 4.09456151 5.28368454 5 8 C5.99 8.66 6.98 9.32 8 10 C4.30581799 11.231394 1.7943739 10.64432764 -2 10 C-2 9.34 -2 8.68 -2 8 C-1.34 8 -0.68 8 0 8 C0 5.36 0 2.72 0 0 Z " fill="#2A165E" transform="translate(1002,757)"/>
<path d="M0 0 C2.3125 2.125 2.3125 2.125 4 4 C2.02 4.99 2.02 4.99 0 6 C-0.721875 5.195625 -1.44375 4.39125 -2.1875 3.5625 C-5.02515689 0.97707928 -6.27166147 0.31957187 -10 0 C-10 -0.33 -10 -0.66 -10 -1 C-5.94051788 -2.15985203 -3.72865037 -2.00773481 0 0 Z " fill="#231656" transform="translate(1011,741)"/>
<path d="M0 0 C0.66 0.66 1.32 1.32 2 2 C4.91188245 2.37268887 4.91188245 2.37268887 8.3203125 2.4140625 C9.57714844 2.45273437 10.83398438 2.49140625 12.12890625 2.53125 C13.44761719 2.5621875 14.76632812 2.593125 16.125 2.625 C17.46486918 2.66318029 18.80471383 2.70223206 20.14453125 2.7421875 C23.42954619 2.8367203 26.71455138 2.92227156 30 3 C30 3.33 30 3.66 30 4 C19.77 4 9.54 4 -1 4 C-0.67 2.68 -0.34 1.36 0 0 Z " fill="#2D1861" transform="translate(1187,526)"/>
<path d="M0 0 C1.32 0.99 2.64 1.98 4 3 C3.40364189 6.57814867 2.000066 8.54422861 -0.375 11.25 C-0.98085938 11.95640625 -1.58671875 12.6628125 -2.2109375 13.390625 C-4 15 -4 15 -7 15 C-7 14.34 -7 13.68 -7 13 C-4.99601863 11.14363333 -2.87875008 9.46503696 -0.75 7.75390625 C1.35315902 6.05899225 1.35315902 6.05899225 1 3 C0.67 2.01 0.34 1.02 0 0 Z " fill="#160A48" transform="translate(896,389)"/>
<path d="M0 0 C-0.33 0.66 -0.66 1.32 -1 2 C-3.31 2 -5.62 2 -8 2 C-7.67 6.29 -7.34 10.58 -7 15 C-7.33 15 -7.66 15 -8 15 C-8.66 10.38 -9.32 5.76 -10 1 C-3.25 -1.25 -3.25 -1.25 0 0 Z " fill="#110844" transform="translate(771,734)"/>
<path d="M0 0 C2.475 0.495 2.475 0.495 5 1 C4.67 2.65 4.34 4.3 4 6 C2.68 6 1.36 6 0 6 C0 4.02 0 2.04 0 0 Z " fill="#10073F" transform="translate(1001,746)"/>
<path d="M0 0 C1.65 0 3.3 0 5 0 C5.6875 2.8125 5.6875 2.8125 6 6 C5.01 6.99 4.02 7.98 3 9 C2.01 6.03 1.02 3.06 0 0 Z " fill="#27145A" transform="translate(1010,755)"/>
<path d="M0 0 C0.226875 1.051875 0.45375 2.10375 0.6875 3.1875 C1.79360531 7.1597906 3.88629885 9.29599637 7 12 C4 12 4 12 2.46484375 10.5390625 C1.96082031 9.90742187 1.45679688 9.27578125 0.9375 8.625 C-0.66063282 6.64868307 -2.19993981 4.80006019 -4 3 C-1.125 0 -1.125 0 0 0 Z " fill="#1B1249" transform="translate(909,578)"/>
<path d="M0 0 C0.99 0.33 1.98 0.66 3 1 C2.38125 1.4125 1.7625 1.825 1.125 2.25 C-1.06768281 4.05573879 -1.92788417 5.4090534 -3 8 C-3.66 8 -4.32 8 -5 8 C-5.33 8.66 -5.66 9.32 -6 10 C-5.58578031 5.16743695 -3.53586014 3.17320782 0 0 Z " fill="#110644" transform="translate(1034,328)"/>
<path d="M0 0 C0.99 0.495 0.99 0.495 2 1 C2.99 0.67 3.98 0.34 5 0 C5.33 1.65 5.66 3.3 6 5 C5.67 4.34 5.34 3.68 5 3 C4.01 3 3.02 3 2 3 C1.34 4.32 0.68 5.64 0 7 C0 4.69 0 2.38 0 0 Z " fill="#120845" transform="translate(1010,745)"/>
<path d="M0 0 C6.625 -0.125 6.625 -0.125 10 1 C10 1.66 10 2.32 10 3 C4.58461538 3.36923077 4.58461538 3.36923077 1.625 1.5 C1.08875 1.005 0.5525 0.51 0 0 Z " fill="#190D4B" transform="translate(1041,396)"/>
<path d="M0 0 C1.98 0.66 3.96 1.32 6 2 C5.01 2.99 4.02 3.98 3 5 C1.35 4.01 -0.3 3.02 -2 2 C-1.34 1.34 -0.68 0.68 0 0 Z " fill="#2B1D5C" transform="translate(1009,742)"/>
<path d="M0 0 C0.33 0.99 0.66 1.98 1 3 C1.66 3 2.32 3 3 3 C3.33 5.64 3.66 8.28 4 11 C1.9656541 9.58480285 1.09589607 8.45017877 0.578125 6.01953125 C0.33726048 4.01823046 0.16467259 2.0090056 0 0 Z " fill="#170F46" transform="translate(771,737)"/>
<path d="M0 0 C0.66 0.99 1.32 1.98 2 3 C1.5390625 5.04296875 1.5390625 5.04296875 0.625 7.1875 C0.32851562 7.90292969 0.03203125 8.61835938 -0.2734375 9.35546875 C-0.51320313 9.89816406 -0.75296875 10.44085938 -1 11 C-1.33 11 -1.66 11 -2 11 C-2.28571429 3.57142857 -2.28571429 3.57142857 0 0 Z " fill="#140A47" transform="translate(1026,340)"/>
</svg>
