<?xml version="1.0" encoding="UTF-8"?>
<svg version="1.1" xmlns="http://www.w3.org/2000/svg" width="225" height="225">
<path d="M0 0 C74.25 0 148.5 0 225 0 C225 74.25 225 148.5 225 225 C150.75 225 76.5 225 0 225 C0 150.75 0 76.5 0 0 Z " fill="#FCFCFC" transform="translate(0,0)"/>
<path d="M0 0 C74.25 0 148.5 0 225 0 C225 74.25 225 148.5 225 225 C150.75 225 76.5 225 0 225 C0 150.75 0 76.5 0 0 Z M39 35 C38.17628906 35.74121094 37.35257813 36.48242188 36.50390625 37.24609375 C16.88629546 55.77572613 6.44848076 83.13409136 5.66552734 109.7331543 C5.21761565 141.00332693 16.79787932 166.94495666 38.1875 189.5625 C59.42520635 210.13882449 86.77509831 219.42917196 115.96386719 219.23022461 C145.36676112 218.7057159 170.84978835 205.36196412 191.34375 184.62890625 C211.26128932 163.31304653 219.79248107 136.06493586 219.25390625 107.23046875 C218.98925021 99.93580354 217.76303682 93.08267604 216 86 C215.73316406 84.906875 215.46632812 83.81375 215.19140625 82.6875 C207.86026287 56.09988668 188.75087437 32.75722121 164.97851562 19.05664062 C158.9007403 15.81076061 152.44337245 13.40712699 146 11 C144.71996094 10.49146484 144.71996094 10.49146484 143.4140625 9.97265625 C107.43095085 -3.47084829 66.0952116 10.11438772 39 35 Z " fill="#0B0B0B" transform="translate(0,0)"/>
<path d="M0 0 C0.33 0 0.66 0 1 0 C1 34.98 1 69.96 1 106 C-33.98 106 -68.96 106 -105 106 C-105 105.67 -105 105.34 -105 105 C-104.11030518 104.90295776 -104.11030518 104.90295776 -103.20263672 104.80395508 C-91.2000221 103.45084437 -80.10345062 101.9693765 -69 97 C-68.36932617 96.72027344 -67.73865234 96.44054687 -67.08886719 96.15234375 C-55.70173308 91.02230381 -44.48760372 84.73195816 -35.7265625 75.6953125 C-33 73 -33 73 -31 73 C-30.74347656 72.41863281 -30.48695313 71.83726562 -30.22265625 71.23828125 C-28.88853189 68.79593858 -27.37927227 67.17634553 -25.4375 65.1875 C-8.99101423 46.95335274 -2.4023438 23.85386083 0 0 Z " fill="#FCFCFC" transform="translate(224,119)"/>
<path d="M0 0 C34.98 0 69.96 0 106 0 C106 34.32 106 68.64 106 104 C105.67 104 105.34 104 105 104 C104.90203125 103.07960938 104.8040625 102.15921875 104.703125 101.2109375 C101.90056161 77.48578882 92.94878237 57.4549944 78 39 C77.18015625 37.97390625 76.3603125 36.9478125 75.515625 35.890625 C71.51452137 31.29308356 66.80530365 27.72149875 62 24 C61.21625 23.38898437 60.4325 22.77796875 59.625 22.1484375 C48.36944089 13.82084478 34.45315836 7.00160178 20.8125 3.875 C20.07652588 3.70323242 19.34055176 3.53146484 18.58227539 3.35449219 C12.42186551 1.97524598 6.31245858 1.24325467 0 1 C0 0.67 0 0.34 0 0 Z " fill="#FCFCFC" transform="translate(119,0)"/>
<path d="M0 0 C0.33 0 0.66 0 1 0 C1.09796875 1.13695313 1.1959375 2.27390625 1.296875 3.4453125 C3.7574941 29.75875497 13.45013426 52.97543297 32 72 C32.825 72.86625 33.65 73.7325 34.5 74.625 C35.325 75.40875 36.15 76.1925 37 77 C37.87785156 77.87011719 37.87785156 77.87011719 38.7734375 78.7578125 C56.37255005 95.4409861 80.21563873 103.88091462 104 106 C104 106.33 104 106.66 104 107 C69.68 107 35.36 107 0 107 C0 71.69 0 36.38 0 0 Z " fill="#FCFCFC" transform="translate(0,118)"/>
<path d="M0 0 C34.32 0 68.64 0 104 0 C104 0.33 104 0.66 104 1 C103.030625 1.08636719 102.06125 1.17273438 101.0625 1.26171875 C77.08231568 3.66124822 53.13088096 13.26676522 36.171875 30.86328125 C34 33 34 33 32 33 C31.73316406 33.59039062 31.46632813 34.18078125 31.19140625 34.7890625 C29.97920482 37.0385904 28.69825169 38.53516017 26.9375 40.375 C11.2574758 57.98236051 2.88142241 80.72977548 1 104 C0.67 104 0.34 104 0 104 C0 69.68 0 35.36 0 0 Z " fill="#FCFCFC" transform="translate(0,0)"/>
<path d="M0 0 C2.10461552 1.99448369 3.73887543 3.95963915 5.27734375 6.4140625 C5.70233154 7.08381104 6.12731934 7.75355957 6.56518555 8.44360352 C7.01804932 9.16346436 7.47091309 9.8833252 7.9375 10.625 C10.89085099 15.27579358 13.87035825 19.88161221 17.109375 24.33984375 C17.6237915 25.04866699 18.13820801 25.75749023 18.66821289 26.48779297 C19.63123825 27.80288047 20.60334693 29.11140345 21.58764648 30.41064453 C23.15319711 32.55274588 24.56679917 34.76713676 26 37 C26.69851074 37.93473145 27.39702148 38.86946289 28.11669922 39.83251953 C37.19945786 53.3644324 35.0438975 70.73252286 34.7824707 86.31207275 C34.73913948 89.56541677 34.74059932 92.81808396 34.74302292 96.07166672 C34.74192723 99.24115413 34.7198661 102.41022087 34.69101715 105.57956696 C34.67844577 107.07680348 34.67044277 108.57408669 34.66744232 110.07137299 C34.58103418 130.62741103 34.58103418 130.62741103 28.03955078 138.29919434 C25.25973334 140.61731718 23.50348381 140.46085262 19.921875 140.390625 C18.76171875 140.37773437 17.6015625 140.36484375 16.40625 140.3515625 C14.59640625 140.30128906 14.59640625 140.30128906 12.75 140.25 C11.52796875 140.23195312 10.3059375 140.21390625 9.046875 140.1953125 C6.03045922 140.148181 3.01562509 140.08239413 0 140 C0 136.37 0 132.74 0 129 C9.9 128.505 9.9 128.505 20 128 C22.09133461 123.81733077 22.43074778 120.6721919 22.6171875 116.12890625 C22.65472137 115.34318741 22.69225525 114.55746857 22.73092651 113.74794006 C23.1195194 104.75696411 23.15071604 95.76283481 23.13037109 86.76489258 C23.12494579 83.90896445 23.1303901 81.05318944 23.13671875 78.19726562 C23.13605884 76.34895799 23.13477948 74.50065045 23.1328125 72.65234375 C23.13483673 71.81468979 23.13686096 70.97703583 23.13894653 70.11399841 C23.07188557 53.04933903 17.19055108 40.13395202 5.640625 27.3984375 C-0.91870101 19.88545061 -0.78113973 13.3086939 -0.28125 3.76953125 C-0.1884375 2.52558594 -0.095625 1.28164062 0 0 Z " fill="#050505" transform="translate(120,65)"/>
<path d="M0 0 C0.33 0 0.66 0 1 0 C2.4440355 10.23431512 2.51804359 18.01674792 -3.71435547 26.64331055 C-6.14690959 29.72332317 -8.66477907 32.72375047 -11.20019531 35.71923828 C-21.09068661 48.25273933 -22.15299964 59.33999007 -22.16796875 74.8125 C-22.17129715 76.02139893 -22.17462555 77.23029785 -22.17805481 78.47583008 C-22.1830961 81.02066673 -22.185464 83.56550993 -22.18530273 86.11035156 C-22.18749308 89.98774124 -22.20568953 93.86484789 -22.22460938 97.7421875 C-22.22754317 100.22395737 -22.22952806 102.70572858 -22.23046875 105.1875 C-22.23765427 106.33774658 -22.24483978 107.48799316 -22.25224304 108.6730957 C-22.66532477 118.96091816 -22.66532477 118.96091816 -19 128 C-17.51361008 128.15655027 -16.02050873 128.25066943 -14.52734375 128.31640625 C-13.62822266 128.35830078 -12.72910156 128.40019531 -11.80273438 128.44335938 C-10.85720703 128.48267578 -9.91167969 128.52199219 -8.9375 128.5625 C-7.98810547 128.60568359 -7.03871094 128.64886719 -6.06054688 128.69335938 C-3.70721824 128.79979132 -1.35362901 128.90043154 1 129 C1 132.63 1 136.26 1 140 C-3.22864445 140.17449702 -7.45636251 140.28092495 -11.6875 140.375 C-12.88568359 140.42527344 -14.08386719 140.47554687 -15.31835938 140.52734375 C-24.01541412 140.67269843 -24.01541412 140.67269843 -28.14453125 137.8515625 C-33.94227707 128.41714928 -33.46397966 115.21053776 -33.43359375 104.546875 C-33.43817256 103.11110187 -33.44348306 101.67533091 -33.44947815 100.23956299 C-33.45832463 97.25792423 -33.45608061 94.27655459 -33.44604492 91.29492188 C-33.43450754 87.50024541 -33.45488167 83.70649305 -33.48396206 79.91193771 C-33.50241237 76.95711521 -33.50201518 74.00251129 -33.49632454 71.04764557 C-33.49617271 69.6491897 -33.50210052 68.25071768 -33.51461601 66.85231781 C-33.60783733 54.74497987 -30.88309823 46.30172726 -24.375 36.25 C-23.72640015 35.2293042 -23.72640015 35.2293042 -23.06469727 34.18798828 C-19.77464739 29.06457909 -16.28907349 24.0980253 -12.70092773 19.18017578 C-9.18290243 14.33844728 -5.94278601 9.34444549 -2.77905273 4.26513672 C-1.87669724 2.82807504 -0.94175302 1.41155692 0 0 Z " fill="#040404" transform="translate(104,65)"/>
<path d="M0 0 C2.97 0 5.94 0 9 0 C8.67 6.93 8.34 13.86 8 21 C11.54193238 20.69030642 15.08352517 20.37734738 18.625 20.0625 C20.12353516 19.93198242 20.12353516 19.93198242 21.65234375 19.79882812 C26.47482126 19.36767947 31.23730947 18.90214786 36 18 C36 20.64 36 23.28 36 26 C26.43 25.67 16.86 25.34 7 25 C7.10902417 39.60643496 7.22135203 54.21283516 7.33933926 68.81920052 C7.39405274 75.60487611 7.4473926 82.39055686 7.49731445 89.17626953 C7.1968921 135.15511276 7.1968921 135.15511276 10 181 C6.7 181 3.4 181 0 181 C0.04102089 179.99586815 0.04102089 179.99586815 0.08287048 178.97145081 C0.87519261 158.68190237 1.15141543 138.39331705 1.31640625 118.08984375 C1.3245256 117.09069152 1.3245256 117.09069152 1.33280897 116.07135439 C1.39932403 107.80977266 1.45948521 99.54814934 1.51740873 91.28650343 C1.56760251 84.14927594 1.6222085 77.01208397 1.67708123 69.87489116 C1.78942819 55.2499604 1.89598251 40.6249926 2 26 C-11.365 26.495 -11.365 26.495 -25 27 C-25 24.69 -25 22.38 -25 20 C-12.13 20.495 -12.13 20.495 1 21 C0.67 14.07 0.34 7.14 0 0 Z " fill="#121212" transform="translate(108,24)"/>
</svg>
